<svg xmlns:xlink="http://www.w3.org/1999/xlink" xmlns="http://www.w3.org/2000/svg" width="448.5354107648725" height="140.625" viewBox="0 0 448.5354107648725 140.625" class="css-1j8o68f"><defs id="SvgjsDefs1197"></defs><g id="SvgjsG1198" featurekey="symbolContainer" transform="matrix(1.40625,0,0,1.40625,0,0)" fill="#2B3595"><path xmlns="http://www.w3.org/2000/svg" d="M0 0h100v100H0z" fill="#2B3595"></path></g><g id="SvgjsG1199" featurekey="monogramFeature-0" transform="matrix(1.9982275300411398,0,0,1.9982275300411398,33.00531740987658,-4.973414856275372)" fill="#FFFFFF"><path d="M13.74 26.759999999999998 l-4.74 0 c-0.42 0 -0.9 -0.72 -0.9 -1.14 l0 -9.42 c0 -0.42 0.48 -1.2 0.96 -1.2 l24.24 0 c0.48 0 0.96 0.72 0.96 1.14 l0 9.54 c0 0.42 -0.42 1.08 -0.9 1.08 l-4.8 0 c-0.48 0 -0.9 -0.6 -0.96 -1.02 l-0.36 -1.8 l-1.98 0 l0 1.02 l0.36 0 c-0.06 0.06 -0.24 0.18 -0.36 0.3 l0 0.9 c0.18 -0.12 0.9 -0.66 1.08 -0.72 l0.12 0.48 c0 0.12 0 0.12 -0.06 0.12 l-1.14 0.84 l0 0.96 l1.38 -1.02 c0 0.12 0.24 0.48 0.24 0.54 l-0.06 0.06 l-1.56 1.14 l0 0.96 l2.28 -1.68 l0.96 0 l-3.24 2.4 l0 16.68 l1.5 0.54 c0.42 0.12 0.78 0.6 0.78 1.08 l0 5.94 c0 0.48 -0.42 1.14 -0.96 1.14 l-10.8 0 c-0.6 0 -0.96 -0.66 -0.96 -1.2 l0 -5.82 c0 -0.18 0.12 -0.42 0.12 -0.6 l-2.88 2.16 l-0.06 0 l0 -0.66 l4.14 -3.06 l0 0.66 c0 0.12 -0.3 0.18 -0.36 0.3 l1.32 -0.48 l0 -22.98 l-1.98 0 l-0.36 1.74 l0.06 0 c0.12 -0.12 0.78 -0.6 0.96 -0.72 l0.36 0 l0 0.48 l-2.64 1.92 c0.12 -0.18 0.24 -0.36 0.24 -0.6 z M4.08 19.380000000000003 l-0.9 0.66 c0 -0.3 0.6 -0.66 0.9 -0.66 z M3 21.119999999999997 l2.34 -1.74 l0.96 0 l-3.3 2.46 l0 -0.72 z M3 22.799999999999997 l4.08 -3.06 l0 0.72 l-4.08 3.06 l0 -0.72 z M3 24.479999999999997 l4.08 -3.06 l0 0.72 l-4.08 3.06 l0 -0.72 z M3 26.880000000000003 l0 -0.72 l4.08 -3.06 l0 0.72 z M3 27.840000000000003 l4.08 -3.06 l0 0.72 l-4.08 3.06 l0 -0.72 z M14.76 25.740000000000002 c0.06 0 0.06 -0.06 0 -0.06 l0 0.06 z M12 29.46 l4.14 -3.06 l0 0.66 l-4.08 3 s0 0.06 -0.06 0.06 l0 -0.66 z M3 29.52 l4.08 -3.06 c0.06 0.18 0.12 0.42 0.12 0.6 l-4.14 3.12 c-0.06 0 -0.06 -0.06 -0.06 -0.12 l0 -0.54 z M3.42 30.9 l0 -0.06 l4.26 -3.12 l0 -0.06 c0.06 0 0.24 0.12 0.3 0.12 c0.12 0.06 0.36 0.06 0.48 0.06 l-4.5 3.36 c-0.18 0 -0.42 -0.18 -0.54 -0.3 z M12 27.78 l0.84 0 l0.18 0 l-1.02 0.72 l0 -0.18 l-0.72 0 z M6.24 31.2 l-0.96 0 l4.44 -3.36 l0.96 0 z M12 31.8 l0 -0.72 l4.14 -3.12 l0 0.78 z M26.28 31.2 l-0.96 0 l3.84 -2.94 l0 0.72 z M8.46 31.2 l-0.96 0 l2.28 -1.74 l0 0.06 c0 0.12 -0.12 0.78 -0.18 0.78 z M12 32.760000000000005 l4.14 -3.12 l0 0.78 l-4.14 3.06 l0 -0.72 z M28.2 31.2 l-0.66 0 l1.62 -1.26 c0 0.48 -0.42 1.26 -0.96 1.26 z M12 34.44 l4.14 -3.12 l0 0.78 l-4.08 3 s0 0.06 -0.06 0.06 l0 -0.72 z M12 36.84 l0 -0.72 l4.14 -3.12 l0 0.72 z M12 38.519999999999996 l0 -0.78 l4.14 -3.06 l0 0.72 z M12 39.42 l4.14 -3.06 l0 0.72 l-4.08 3.06 l-0.06 0 l0 -0.72 z M12 41.879999999999995 l0 -0.78 l4.14 -3.06 l0 0.72 z M12 43.5 l0 -0.72 l4.14 -3.06 l0 0.72 z M12 44.46 l4.14 -3.06 l0 0.72 l-4.14 3.06 l0 -0.72 z M12 46.14 l4.14 -3.06 l0 0.72 l-4.14 3.06 l0 -0.72 z M12 48.54 l0 -0.72 l4.14 -3.06 l0 0.72 z M15.72 47.4 l0 0 z M12 51.36 l0 -0.24 l1.8 -1.32 l0 0.72 l-4.08 3.06 l0 -0.66 l0 -0.06 l1.8 -1.32 z M9.72 55.26 l0 -0.72 l4.08 -3.06 l0 0.72 z M9.72 56.22 l4.08 -3.06 l0 0.72 l-4.08 3.06 l0 -0.72 z M9.72 57.9 l4.02 -3.06 l0.06 0 l0 0.72 l-4.08 3.06 l0 -0.72 z M9.84 59.46 l4.2 -3.18 l0.06 0 c0.18 0.18 0.3 0.24 0.54 0.3 l-4.38 3.3 c-0.06 0 -0.42 -0.36 -0.42 -0.42 z M11.4 60 l4.44 -3.36 l0.96 0 l-4.44 3.36 l-0.96 0 z M13.62 60 l4.44 -3.36 l1.02 0 l-4.5 3.36 l-0.96 0 z M16.8 60 l-0.96 0 l4.5 -3.36 l0.96 0 z M19.08 60 l-0.96 0 l4.32 -3.3 l0 0.72 z M21.3 60 l-0.96 0 l2.16 -1.62 c0 0.06 -0.06 0.72 -0.12 0.78 z" fill="#FFFFFF"></path></g><g id="SvgjsG1200" featurekey="nameFeature-0" transform="matrix(0.8652365323413904,0,0,0.8652365323413904,159.2695271416057,24.347635501739955)" fill="#111111"><path d="M9.16 17.84 l-3.16 0 c-0.28 0 -0.6 -0.48 -0.6 -0.76 l0 -6.28 c0 -0.28 0.32 -0.8 0.64 -0.8 l16.16 0 c0.32 0 0.64 0.48 0.64 0.76 l0 6.36 c0 0.28 -0.28 0.72 -0.6 0.72 l-3.2 0 c-0.32 0 -0.6 -0.4 -0.64 -0.68 l-0.24 -1.2 l-1.32 0 l0 0.68 l0.24 0 c-0.04 0.04 -0.16 0.12 -0.24 0.2 l0 0.6 c0.12 -0.08 0.6 -0.44 0.72 -0.48 l0.08 0.32 c0 0.08 0 0.08 -0.04 0.08 l-0.76 0.56 l0 0.64 l0.92 -0.68 c0 0.08 0.16 0.32 0.16 0.36 l-0.04 0.04 l-1.04 0.76 l0 0.64 l1.52 -1.12 l0.64 0 l-2.16 1.6 l0 11.12 l1 0.36 c0.28 0.08 0.52 0.4 0.52 0.72 l0 3.96 c0 0.32 -0.28 0.76 -0.64 0.76 l-7.2 0 c-0.4 0 -0.64 -0.44 -0.64 -0.8 l0 -3.88 c0 -0.12 0.08 -0.28 0.08 -0.4 l-1.92 1.44 l-0.04 0 l0 -0.44 l2.76 -2.04 l0 0.44 c0 0.08 -0.2 0.12 -0.24 0.2 l0.88 -0.32 l0 -15.32 l-1.32 0 l-0.24 1.16 l0.04 0 c0.08 -0.08 0.52 -0.4 0.64 -0.48 l0.24 0 l0 0.32 l-1.76 1.28 c0.08 -0.12 0.16 -0.24 0.16 -0.4 z M2.72 12.920000000000002 l-0.6 0.44 c0 -0.2 0.4 -0.44 0.6 -0.44 z M2 14.079999999999998 l1.56 -1.16 l0.64 0 l-2.2 1.64 l0 -0.48 z M2 15.2 l2.72 -2.04 l0 0.48 l-2.72 2.04 l0 -0.48 z M2 16.32 l2.72 -2.04 l0 0.48 l-2.72 2.04 l0 -0.48 z M2 17.92 l0 -0.48 l2.72 -2.04 l0 0.48 z M2 18.56 l2.72 -2.04 l0 0.48 l-2.72 2.04 l0 -0.48 z M9.84 17.16 c0.04 0 0.04 -0.04 0 -0.04 l0 0.04 z M8 19.64 l2.76 -2.04 l0 0.44 l-2.72 2 s0 0.04 -0.04 0.04 l0 -0.44 z M2 19.68 l2.72 -2.04 c0.04 0.12 0.08 0.28 0.08 0.4 l-2.76 2.08 c-0.04 0 -0.04 -0.04 -0.04 -0.08 l0 -0.36 z M2.28 20.6 l0 -0.04 l2.84 -2.08 l0 -0.04 c0.04 0 0.16 0.08 0.2 0.08 c0.08 0.04 0.24 0.04 0.32 0.04 l-3 2.24 c-0.12 0 -0.28 -0.12 -0.36 -0.2 z M8 18.52 l0.56 0 l0.12 0 l-0.68 0.48 l0 -0.12 l-0.48 0 z M4.16 20.8 l-0.64 0 l2.96 -2.24 l0.64 0 z M8 21.2 l0 -0.48 l2.76 -2.08 l0 0.52 z M17.52 20.8 l-0.64 0 l2.56 -1.96 l0 0.48 z M5.64 20.8 l-0.64 0 l1.52 -1.16 l0 0.04 c0 0.08 -0.08 0.52 -0.12 0.52 z M8 21.84 l2.76 -2.08 l0 0.52 l-2.76 2.04 l0 -0.48 z M18.8 20.8 l-0.44 0 l1.08 -0.84 c0 0.32 -0.28 0.84 -0.64 0.84 z M8 22.96 l2.76 -2.08 l0 0.52 l-2.72 2 s0 0.04 -0.04 0.04 l0 -0.48 z M8 24.560000000000002 l0 -0.48 l2.76 -2.08 l0 0.48 z M8 25.68 l0 -0.52 l2.76 -2.04 l0 0.48 z M8 26.28 l2.76 -2.04 l0 0.48 l-2.72 2.04 l-0.04 0 l0 -0.48 z M8 27.92 l0 -0.52 l2.76 -2.04 l0 0.48 z M8 29 l0 -0.48 l2.76 -2.04 l0 0.48 z M8 29.64 l2.76 -2.04 l0 0.48 l-2.76 2.04 l0 -0.48 z M8 30.759999999999998 l2.76 -2.04 l0 0.48 l-2.76 2.04 l0 -0.48 z M8 32.36 l0 -0.48 l2.76 -2.04 l0 0.48 z M10.48 31.6 l0 0 z M8 34.24 l0 -0.16 l1.2 -0.88 l0 0.48 l-2.72 2.04 l0 -0.44 l0 -0.04 l1.2 -0.88 z M6.48 36.84 l0 -0.48 l2.72 -2.04 l0 0.48 z M6.48 37.48 l2.72 -2.04 l0 0.48 l-2.72 2.04 l0 -0.48 z M6.48 38.6 l2.68 -2.04 l0.04 0 l0 0.48 l-2.72 2.04 l0 -0.48 z M6.56 39.64 l2.8 -2.12 l0.04 0 c0.12 0.12 0.2 0.16 0.36 0.2 l-2.92 2.2 c-0.04 0 -0.28 -0.24 -0.28 -0.28 z M7.6 40 l2.96 -2.24 l0.64 0 l-2.96 2.24 l-0.64 0 z M9.08 40 l2.96 -2.24 l0.68 0 l-3 2.24 l-0.64 0 z M11.2 40 l-0.64 0 l3 -2.24 l0.64 0 z M12.72 40 l-0.64 0 l2.88 -2.2 l0 0.48 z M14.2 40 l-0.64 0 l1.44 -1.08 c0 0.04 -0.04 0.48 -0.08 0.52 z M37.148 31.28 l0 -15.52 l-0.96 -0.28 c-0.32 -0.12 -0.56 -0.44 -0.56 -0.76 l0 -3.96 c0 -0.28 0.28 -0.76 0.6 -0.76 l12.12 0 c5 0 6.68 3.36 6.68 7.8 l0 1.64 l-0.08 2.16 c-0.08 1.32 -0.72 2.84 -1.68 3.76 c-0.04 0.04 -0.28 0.2 -0.28 0.24 c0.04 0.04 0.12 0.12 0.16 0.12 c1.2 0.96 1.64 2.76 1.68 4.24 l0.04 1.32 c0.16 0.08 0.8 0.28 0.96 0.32 c0.32 0.12 0.6 0.36 0.6 0.72 l0 4 c0 0.36 -0.32 0.76 -0.68 0.76 l-5.64 0 c-0.36 0 -0.64 -0.48 -0.64 -0.8 l0 -5.16 c0 -1.08 -0.48 -2.4 -1.72 -2.4 l-5.16 0 l0 0.68 l0.52 0 l-0.52 0.4 l0 0.64 l1.36 -1.04 l0.64 0 l-2 1.52 l0 0.36 l0.24 0.08 l0 0 l2.6 -1.96 l0.68 0 l-2.8 2.08 c0.52 0.2 0.88 0.4 0.88 1 l0 3.72 c0 0.36 -0.24 0.88 -0.68 0.88 l-7.24 0 c-0.36 0 -0.64 -0.44 -0.64 -0.76 l0 -3.96 c0 -0.32 0.24 -0.64 0.52 -0.72 z M32.228 14.16 l0 -0.48 l1.04 -0.76 l0.64 0 z M32.228 14.8 l2.52 -1.88 l0.2 0 l0 0.32 l-2.72 2.04 l0 -0.48 z M32.228 15.920000000000002 l2.72 -2.04 l0 0.48 l-2.72 2.04 l0 -0.48 z M32.228 17.52 l0 -0.48 l2.68 -2 c0.08 0.04 0.08 0.32 0.08 0.44 z M32.348 18.08 l2.84 -2.12 c0.12 0.08 0.2 0.12 0.36 0.2 l-2.88 2.16 c-0.08 0 -0.32 -0.24 -0.32 -0.24 z M42.588 15.96 l0 1.08 c0.08 -0.04 0.48 -0.36 0.56 -0.4 l0.64 0 l-1.2 0.88 l0 0.64 l2.04 -1.52 l0.64 0 l-2.68 2 l0 4.12 l4.32 0 l2.04 -1.52 c0 0.12 0 0.48 -0.08 0.56 l-1.24 0.92 c1.92 0 1.96 -1.44 2 -2.88 l0 -0.6 c0 -0.64 0 -1.32 -0.12 -1.96 c-0.16 -1.32 -1.04 -1.32 -2.2 -1.32 l-0.24 0 l-4.48 0 z M33.668 18.64 l-0.44 -0.12 l2.88 -2.16 l0.04 0 l0.36 0.08 l0 0.12 l-2.76 2.08 c-0.04 0 -0.04 0.04 -0.08 0.04 l0 -0.04 z M43.148 18.88 l3 -2.24 l0.6 0 l-2.96 2.24 l-0.64 0 z M44.628 18.92 l-0.04 0 l2.92 -2.2 c0.12 0 0.48 0.04 0.52 0.08 l-2.88 2.16 c0 0.04 0 0.04 -0.04 0.04 c-0.16 0 -0.36 -0.08 -0.48 -0.08 z M45.668 19.2 l2.84 -2.08 c0.12 0.04 0.24 0.2 0.24 0.28 l-2.8 2.08 c-0.08 -0.08 -0.2 -0.16 -0.28 -0.28 z M33.788000000000004 19.72 l0 -0.48 l2.72 -2.04 l0 0.48 z M46.108000000000004 20 l2.76 -2.08 l0 0.04 s0.04 0.24 0.04 0.44 l-2.76 2.04 z M33.788000000000004 20.84 l0 -0.48 l2.72 -2.08 l0 0.52 z M46.228 21.04 l2.72 -2.04 c0.04 0.08 0.04 0.28 0.04 0.44 l-2.76 2.08 l0 -0.4 l0 -0.08 z M33.788000000000004 21.48 l2.72 -2.08 l0 0.52 l-2.72 2.04 l0 -0.48 z M46.228 22.12 l2.76 -2.04 l0 0.2 l0 0.2 c0 0.04 0 0.08 -0.04 0.08 l-2.72 2.08 l0 -0.52 z M33.788000000000004 23.04 l0 -0.44 l2.72 -2.08 l0 0.44 z M33.788000000000004 24.16 l0 -0.52 l2.72 -2.04 l0 0.48 z M33.788000000000004 24.759999999999998 l2.72 -2.04 l0 0.48 l-2.72 2.04 l0 -0.48 z M47.588 22.72 l0 0 z M33.788000000000004 25.880000000000003 l2.72 -2.04 l0 0.48 l-2.72 2.04 l0 -0.48 z M33.788000000000004 27.48 l0 -0.48 l2.72 -2.04 l0 0.48 z M33.788000000000004 28.119999999999997 l2.72 -2.04 l0 0.48 l-2.72 2.04 l0 -0.48 z M33.788000000000004 29.240000000000002 l2.72 -2.04 l0 0.48 l-2.72 2.04 l0 -0.48 z M33.788000000000004 30.84 l0 -0.48 l2.72 -2.04 l0 0.48 z M43.948 31.64 l3 -2.24 c0.2 0 0.4 0 0.56 0.08 l-2.92 2.16 c-0.04 0.04 0 0.04 -0.04 0.04 c-0.2 0 -0.4 -0.04 -0.6 -0.04 z M33.788000000000004 31.96 l0 -0.48 l2.68 -2 c0 -0.04 0.04 -0.04 0.04 -0.04 l0 0.48 z M45.148 31.880000000000003 l2.84 -2.16 c0.04 0 0.28 0.24 0.28 0.28 l-2.84 2.12 c-0.08 -0.08 -0.2 -0.16 -0.28 -0.24 z M45.748000000000005 32.56 c0 -0.04 0.04 -0.04 0.04 -0.04 l2.76 -2.08 l0.12 0.36 c0 0.04 0 0.04 -0.04 0.04 l-2.72 2.04 c-0.08 -0.08 -0.16 -0.24 -0.16 -0.32 z M33.788000000000004 32.6 l2.72 -2.04 l0 0.48 l-2.72 2.04 l0 -0.48 z M46.028000000000006 33.44 l2.72 -2.04 s0.04 0.04 0.04 0.08 l0 0.36 l-2.76 2.08 l0 -0.04 l0 -0.44 z M46.068 35 l0 -0.48 l2.72 -2.04 l0 0.48 z M33.788000000000004 34.2 l0 -0.48 l1.24 -0.96 c-0.04 0.2 -0.04 0.36 -0.08 0.52 z M46.068 35.64 l2.72 -2.04 l0 0.48 l-2.72 2.04 l0 -0.48 z M32.228 36.48 l0 -0.48 l2.72 -2.08 l0 0.52 z M32.748000000000005 34.56 l0.92 -0.28 l-1.44 1.08 c0 -0.4 0.2 -0.68 0.52 -0.8 z M46.068 37.24 l0 -0.48 l2.72 -2.04 l0 0.48 z M32.228 37.12 l2.72 -2.08 l0 0.48 l-2.72 2.04 l0 -0.44 z M46.068 38.36 l0 -0.48 l2.72 -2.04 l0 0.48 z M32.228 38.68 l0 -0.48 l2.68 -2.04 l0.04 0 l0 0.48 z M46.068 39 l2.72 -2.04 c0.04 0.08 0.12 0.32 0.12 0.4 l-2.8 2.08 c-0.04 -0.12 -0.04 -0.24 -0.04 -0.36 l0 -0.08 z M32.228 39.32 c0 -0.04 0 -0.04 0.04 -0.04 l2.72 -2.04 c0.08 0.12 0.16 0.2 0.24 0.32 l-2.8 2.08 l-0.04 0.04 c-0.04 0 -0.16 -0.32 -0.16 -0.36 z M46.388000000000005 39.88 l2.88 -2.16 l0.12 0 c0.12 0.04 0.28 0.04 0.4 0.04 l-2.96 2.24 c-0.16 0 -0.28 -0.04 -0.44 -0.12 z M32.828 39.96 l2.96 -2.2 l0.64 0 l-2.96 2.24 l-0.64 0 l0 -0.04 z M34.948 40 l-0.64 0 l2.96 -2.24 l0.64 0 z M35.788000000000004 40 l2.96 -2.24 l0.68 0 l-3 2.24 l-0.64 0 z M37.268 40 l3 -2.24 l0.48 0 l0 0.12 l-2.8 2.12 l-0.68 0 z M48.308 40 l-0.64 0 l2.96 -2.24 l0.64 0 z M49.788 40 l-0.64 0 l2.96 -2.24 l0.68 0 z M50.628 40 l2.4 -1.8 l0 0.48 l-1.72 1.32 l-0.68 0 z M39.428 40 l-0.64 0 l1.96 -1.52 l0 0.52 z M52.148 40 l0.88 -0.68 c0 0.36 -0.44 0.68 -0.76 0.68 l-0.12 0 z M76.176 26.72 l-5.16 -10.88 l-1.24 -0.36 c-0.32 -0.12 -0.56 -0.48 -0.56 -0.8 l0 -3.92 c0 -0.28 0.28 -0.76 0.6 -0.76 l7.72 0 c0.32 0 0.64 0.48 0.64 0.8 l0 2.16 l0.16 0 c-0.04 0.04 -0.16 0.12 -0.16 0.12 l0 0.64 l0.88 -0.68 l0 0.48 l-0.88 0.68 c0 0.24 -0.04 0.44 0 0.64 l0.88 -0.68 l0 0.48 l-1.88 1.4 c0.08 0.2 0.12 0.36 0.2 0.48 l1.68 -1.24 c0.04 0.16 0.04 0.28 0.08 0.44 l-1.56 1.16 c0 0.08 0.12 0.36 0.24 0.48 l1.68 -1.28 l0.44 0.16 l-2 1.48 l0.2 0.48 l0.04 0 l1.88 -1.4 l-0.36 0.72 l-1.36 1.04 c0.04 0.16 0.12 0.32 0.24 0.44 c0.12 -0.08 0.6 -0.44 0.68 -0.44 c-0.08 0.08 -0.28 0.56 -0.32 0.64 c-0.08 0.08 -0.24 0.12 -0.24 0.24 l0.24 0.48 l1.96 -4.24 c-0.12 -0.08 -0.6 -0.24 -0.68 -0.24 c-0.36 -0.12 -0.48 -0.44 -0.48 -0.8 l0 -3.76 c0 -0.36 0.24 -0.84 0.64 -0.84 l7.68 0 c0.32 0 0.6 0.4 0.6 0.72 l0 4 c0 0.32 -0.24 0.6 -0.52 0.72 l-1.2 0.36 l-5.28 10.88 l0 4.56 c0.48 0.2 1.52 0.36 1.52 1.08 l0 3.92 c0 0.36 -0.28 0.8 -0.68 0.8 l-7.2 0 c-0.4 0 -0.68 -0.48 -0.68 -0.8 l0 -3.88 s0 -0.08 0.04 -0.12 c-0.24 0.08 -0.44 0.24 -0.56 0.44 c-0.04 0.04 -0.08 0.2 -0.12 0.24 l-1.16 0.88 l0 -0.48 l2.72 -2.08 l0 0.2 c0.24 -0.08 0.44 -0.12 0.64 -0.2 l0 -4.56 z M65.896 13.36 c0 -0.2 0.4 -0.44 0.6 -0.44 l0 0.04 c-0.04 0 -0.4 0.28 -0.6 0.4 z M65.816 14.559999999999999 l0 -0.48 l1.56 -1.16 l0.64 0 z M65.816 15.2 l2.76 -2.04 l0 0.48 l-2.76 2.04 l0 -0.48 z M65.816 16.8 l0 -0.48 l2.68 -2.04 l0.08 0 l0 0.48 z M65.816 17.44 l2.76 -2.08 c0 0.12 0.12 0.36 0.12 0.4 l-2.84 2.12 c-0.04 0 -0.04 -0.32 -0.04 -0.36 l0 -0.08 z M76.976 15.64 c0 0.04 0.16 0.4 0.2 0.4 c0.12 0 0.28 -0.4 0.28 -0.56 l-0.44 0.16 l-0.04 0 z M66.176 18.28 l2.84 -2.12 l0.04 -0.04 l0.4 0.16 l-2.92 2.16 c-0.04 0 -0.36 -0.12 -0.36 -0.16 z M67.176 18.64 l-0.04 0 l2.92 -2.2 c0.12 0.04 0.28 0.08 0.28 0.08 l0.08 0.12 c0 0.04 -0.04 0.04 -0.04 0.04 l-2.76 2.08 c-0.16 -0.04 -0.44 -0.12 -0.44 -0.12 z M67.976 19.56 l-0.16 -0.32 l2.8 -2.12 c0.04 0 0.04 0.04 0.04 0.04 l0.16 0.32 l-2.8 2.08 l-0.04 0 z M68.256 20.04 l2.76 -2.08 s0.12 0.16 0.16 0.24 l0 0.12 l-2.8 2.08 l-0.16 -0.32 c0 -0.04 0.04 -0.04 0.04 -0.04 z M68.616 20.88 l2.8 -2.12 l0.16 0.36 l-2.76 2.12 c-0.08 -0.08 -0.16 -0.28 -0.2 -0.36 z M69.056 21.68 l2.76 -2.08 l0.16 0.32 c0 0.04 0 0.04 -0.04 0.04 l-2.76 2.12 l-0.16 -0.36 c0 -0.04 0.04 -0.04 0.04 -0.04 z M69.57600000000001 22.88 l-0.16 -0.36 l2.8 -2.08 s0.08 0.2 0.16 0.32 z M69.816 23.32 l2.8 -2.08 l0.12 0.24 c0 0.04 0.04 0.12 0.04 0.12 l-2.84 2.08 s-0.08 -0.2 -0.12 -0.36 z M70.336 24.52 l-0.16 -0.36 l2.8 -2.08 l0.2 0.32 c0 0.04 -0.04 0.04 -0.04 0.04 z M70.736 25.32 l-0.16 -0.32 l2.76 -2.08 l0.04 -0.04 l0.04 0.04 l0.16 0.32 l-2.8 2.08 l-0.04 0.04 l0 -0.04 z M70.976 25.84 c0 -0.04 0.04 -0.04 0.04 -0.04 l2.76 -2.08 l0.16 0.32 l0 0.04 l-2.8 2.08 c0 -0.12 -0.08 -0.24 -0.16 -0.32 z M71.536 26.96 l-0.16 -0.32 l2.8 -2.12 l0.16 0.36 l-2.76 2.08 l-0.04 0.04 l0 -0.04 z M71.936 27.8 l-0.2 -0.32 l2.84 -2.12 l0.16 0.32 l-0.04 0.04 z M72.296 28.6 l-0.16 -0.32 l2.8 -2.12 c0.04 0 0.12 0.2 0.16 0.36 z M72.57600000000001 29.04 l2.76 -2.04 s0.08 0.16 0.12 0.2 c0 0.04 0.04 0.16 0.04 0.16 l-2.8 2.08 s-0.08 -0.2 -0.12 -0.4 z M72.816 30.48 l0 -0.48 l2.72 -2.04 l0 0.48 z M72.816 31.6 l0 -0.48 l2.72 -2.08 l0 0.52 z M72.816 32.24 l2.72 -2.08 l0 0.52 l-2.72 2.04 l0 -0.48 z M71.21600000000001 36.12 l0 -0.48 l2.76 -2.04 l0 0.48 z M71.936 34.480000000000004 l-0.56 0.4 c0.12 -0.12 0.4 -0.4 0.52 -0.4 l0.04 0 z M71.21600000000001 36.76 l2.76 -2.04 l0 0.48 l-2.76 2.04 l0 -0.48 z M71.21600000000001 38.36 l0 -0.48 l2.76 -2.04 l0 0.48 z M71.21600000000001 39 l0.04 0 l2.72 -2.04 s0.08 0.36 0.08 0.4 l-2.8 2.08 c-0.04 -0.08 -0.04 -0.24 -0.04 -0.36 l0 -0.08 z M71.57600000000001 39.84 l2.88 -2.12 c0.16 0.04 0.36 0.04 0.56 0.04 l-3 2.24 c-0.2 0 -0.32 -0.04 -0.44 -0.16 z M72.896 40 l2.96 -2.24 l0.6 0 l-3 2.24 l-0.56 0 z M74.336 40 l2.96 -2.24 l0.64 0 l-2.96 2.24 l-0.64 0 z M76.456 40 l-0.64 0 l2.96 -2.24 l0.64 0 z M77.936 40 l-0.64 0 l2.44 -1.84 l0.04 0 l0 0.48 z M79.176 40 l-0.4 0 l1 -0.72 c0 0.28 -0.28 0.72 -0.6 0.72 z M102.96400000000001 31.32 l0 -15.56 l-0.92 -0.24 c-0.28 -0.08 -0.56 -0.44 -0.56 -0.76 l0 -4.04 c0 -0.28 0.28 -0.72 0.6 -0.72 l12.12 0 c0.04 0 0.36 0 0.44 0.04 c0.16 0 0.88 0.08 1 0.08 c4.6 0.6 4.76 4.6 4.76 8.32 l-0.12 1.36 c-0.08 1.16 -0.68 2.36 -1.52 3.2 c0.04 0 0.16 0.12 0.16 0.12 c1.56 1.12 1.96 3.48 1.96 5.28 l0 1.36 c0 4.6 -2.12 7.32 -7.04 7.32 l-11.76 0 c-0.36 0 -0.64 -0.44 -0.64 -0.76 l0 -3.92 c0 -0.32 0.24 -0.64 0.56 -0.72 z M98.08400000000002 14.36 l0 -0.48 l1.28 -0.96 l0.64 0 z M98.08400000000002 15.48 l0 -0.48 l2.72 -2.04 l0 0.48 z M98.08400000000002 16.12 l2.72 -2.04 l0 0.48 l-2.72 2.04 l0 -0.48 z M98.08400000000002 17.24 l2.68 -2.04 l0.04 0 c0 0.12 0.08 0.28 0.04 0.44 l0 0 l-2.72 2.04 l-0.04 0.04 c-0.04 -0.12 0 -0.28 0 -0.32 l0 -0.16 z M108.40400000000001 15.96 l0 1.28 l0.84 -0.6 l0.68 0 l-1.52 1.12 l0 0.6 l2.36 -1.72 l0.64 0 l-3 2.24 l0 1.68 l3.2 0 l0 -0.08 l2.72 -2.08 l0 0.52 l-2.24 1.64 l0.72 0 l0.16 0 l1.32 -1 c0 0.12 -0.08 0.56 -0.12 0.6 l-0.36 0.28 c0.12 0 0.28 -0.12 0.36 -0.16 c0.8 -0.44 0.84 -1.48 0.84 -2.24 c0 -2.04 -0.68 -2.08 -2.48 -2.08 l-4.12 0 z M98.284 18.2 l0.04 -0.04 l2.8 -2.08 c0.04 0 0.12 0.04 0.16 0.08 c0.08 0.04 0.16 0.04 0.28 0.08 l-2.96 2.2 c-0.04 0.04 -0.32 -0.24 -0.32 -0.24 z M99.60400000000001 18.68 l-0.36 -0.08 l2.92 -2.16 l0 -0.04 c0.08 0 0.16 0.04 0.16 0.04 l0 0.32 l-2.72 2.08 l0 -0.16 z M109.24400000000001 18.88 l3 -2.24 l0.08 0 l0.2 0 s0.2 0 0.32 0.04 l-2.96 2.2 c-0.04 0.04 -0.04 0 -0.08 0 l-0.56 0 z M110.60400000000001 19 l2.88 -2.2 c0.16 0 0.32 0.12 0.36 0.24 l-2.8 2.08 c-0.08 0 -0.44 -0.12 -0.44 -0.12 z M99.60400000000001 19.92 l0 -0.48 l2.72 -2.04 l0 0.48 z M111.40400000000001 19.52 l2.8 -2.12 c0.04 0.12 0.08 0.28 0.08 0.4 l-2.76 2.08 c-0.08 -0.08 -0.08 -0.24 -0.12 -0.36 z M99.60400000000001 20.56 l2.72 -2.04 l0 0.48 l-2.72 2.04 l0 -0.48 z M99.60400000000001 22.12 l0 -0.44 l2.72 -2.04 l0 0.44 z M99.60400000000001 23.24 l0 -0.48 l2.72 -2.04 l0 0.48 z M99.60400000000001 23.88 l2.72 -2.04 l0 0.48 l-2.72 2.04 l0 -0.48 z M99.60400000000001 25 l2.72 -2.04 l0 0.48 l-2.72 2.04 l0 -0.48 z M99.60400000000001 26.6 l0 -0.48 l2.68 -2.04 l0.04 0 l0 0.48 z M99.60400000000001 27.240000000000002 l2.72 -2.08 l0 0.52 l-2.72 2.04 l0 -0.48 z M108.40400000000001 26.08 l0.04 1.24 c0.08 -0.08 0.6 -0.48 0.72 -0.56 l0.68 0 l-1.44 1.04 l0 0.64 l2.28 -1.68 l0.6 0 l-2.88 2.12 l0 2.24 l3.88 0 l2.56 -1.92 l0 0.48 l-1.92 1.4 l0.08 0 c0.08 0 0.8 -0.04 0.84 -0.04 l0.92 -0.68 c0 0.16 -0.08 0.32 -0.12 0.44 c0.08 0 0.2 -0.08 0.24 -0.16 c0.6 -0.44 0.6 -1.28 0.6 -1.96 c0 -1.84 -0.36 -2.6 -2.32 -2.6 l-4.76 0 z M99.60400000000001 28.36 l2.72 -2.08 l0 0.48 l-2.72 2.08 l0 -0.48 z M109.12400000000001 29 l2.96 -2.24 l0.04 0 l0.2 0 l0.32 0 l0.12 0 l-3 2.24 l-0.64 0 z M110.56400000000001 29.04 l2.88 -2.16 l0.04 -0.04 c0.08 0 0.4 0.12 0.44 0.16 l-2.88 2.16 c-0.04 0 -0.16 -0.04 -0.16 -0.04 c-0.04 0 -0.28 -0.04 -0.32 -0.08 z M111.52400000000002 29.439999999999998 l2.8 -2.12 c0.08 0.04 0.12 0.12 0.12 0.12 c0.04 0.04 0.12 0.2 0.12 0.2 l-2.8 2.08 s-0.2 -0.24 -0.24 -0.28 z M99.60400000000001 29.96 l0 -0.48 l2.72 -2.08 l0 0.48 z M111.96400000000001 30.2 l2.76 -2.04 c0.04 0 0.08 0.4 0.08 0.44 l-2.76 2.04 c-0.04 -0.2 -0.04 -0.2 -0.08 -0.44 z M99.60400000000001 31.08 l0 -0.52 l2.72 -2.04 l0 0.48 z M99.60400000000001 31.68 l2.72 -2.04 l0 0.48 l-2.72 2.08 l0 -0.52 z M99.60400000000001 33.28 l0 -0.48 l2.72 -2.04 l0 0.48 z M99.60400000000001 34.28 l0 -0.36 l1.2 -0.88 l0 0.48 l-2.76 2.04 l0 -0.12 c0 -0.08 0 -0.36 0.08 -0.4 l0.68 -0.52 z M98.04400000000001 36.2 l2.76 -2.04 l0 0.44 l-2.76 2.04 l0 -0.44 z M98.04400000000001 37.76 l0 -0.48 l2.68 -2 c0.04 0 0.04 -0.04 0.08 -0.04 l0 0.48 z M98.04400000000001 38.88 l0 -0.48 l2.76 -2.04 l0 0.48 z M112.52400000000002 39.8 l3.08 -2.28 c0.08 -0.04 0.24 -0.08 0.28 -0.08 c0.08 -0.04 0.4 -0.12 0.48 -0.16 l0.04 0 c0 0.04 -0.12 0.2 -0.12 0.2 l-2.8 2.08 c-0.08 0.08 -0.88 0.24 -0.96 0.24 z M98.12400000000001 39.48 l2.76 -2.08 l0.04 0 c0.04 0.12 0.16 0.16 0.24 0.28 l-2.84 2.12 c-0.08 0 -0.24 -0.28 -0.24 -0.32 l0.04 0 z M110.88400000000001 39.96 l3 -2.24 l0.64 -0.04 l-3.04 2.28 l-0.6 0 z M98.924 40 l2.96 -2.24 l0.64 0 l-2.96 2.24 l-0.64 0 z M100.40400000000001 40 l2.96 -2.24 l0.68 0 l-3 2.24 l-0.64 0 z M102.56400000000001 40 l-0.68 0 l3 -2.24 l0.64 0 z M103.40400000000001 40 l2.96 -2.24 l0.64 0 l-2.96 2.24 l-0.64 0 z M104.88400000000001 40 l2.96 -2.24 l0.68 0 l-3 2.24 l-0.64 0 z M106.364 40 l3 -2.24 l0.64 0 l-2.96 2.24 l-0.68 0 z M108.52400000000002 40 l-0.64 0 l2.96 -2.24 l0.64 0 z M109.364 40 l2.96 -2.24 l0.64 0 l-2.96 2.24 l-0.64 0 z M135.192 31.28 l0 -15.52 l-1.04 -0.36 c-0.28 -0.08 -0.48 -0.44 -0.48 -0.72 l0 -3.88 c0 -0.28 0.28 -0.8 0.6 -0.8 l15.88 0 c0.32 0 0.6 0.44 0.6 0.72 l0 6.4 c0 0.28 -0.32 0.72 -0.6 0.72 l-3.24 0 c-0.28 0 -0.52 -0.4 -0.56 -0.64 l-0.28 -1.24 l-5.44 0 l0 0.68 l0.6 0 l-0.6 0.44 l0 0.64 l1.44 -1.08 l0.64 0 l-2.08 1.56 l0 0.64 l2.92 -2.2 l0.68 0 l-3 2.24 l-0.6 0 l0 1.56 l2.44 0 l-0.04 -0.04 l0.04 -0.04 l2.8 -2.08 c0.08 0.08 0.2 0.16 0.32 0.24 l-2.56 1.92 l0.84 0 l2.52 -1.88 l0.36 0 l0 0.2 l-2.24 1.68 l0.44 0 c0.08 0 0.16 0.08 0.28 0.08 l1.52 -1.12 l0 0.48 l-1.2 0.92 l-0.12 0 c0.04 0.08 0.12 0.24 0.12 0.4 l0 4.28 c0 0.4 -0.32 0.76 -0.72 0.76 l-4.8 0 l0 0.68 l0.24 0 c-0.04 0.04 -0.2 0.16 -0.24 0.2 l0 0.6 l1.08 -0.8 l0.64 0 l-1.72 1.32 l0 0.6 l2.12 -1.56 l0 0.48 l-1.88 1.4 l-0.24 0 l0 1.96 l5.52 0 l0.32 -1.32 c0.04 -0.24 0.28 -0.6 0.6 -0.6 l3.12 0 c0.32 0 0.64 0.44 0.64 0.76 l0 6.4 c0 0.28 -0.32 0.72 -0.64 0.72 l-15.88 0 c-0.32 0 -0.64 -0.48 -0.64 -0.8 l0 -4 c-0.2 0.08 -0.4 0.16 -0.52 0.36 c-0.04 0.04 -0.04 0.12 -0.08 0.16 l-1.24 0.92 l0 -0.48 l2.72 -2.04 l0 0.32 c0.08 -0.04 0.52 -0.16 0.64 -0.24 z M130.912 12.920000000000002 l0.44 0 l-1.08 0.8 c0 -0.32 0.28 -0.8 0.64 -0.8 z M130.27200000000002 14.84 l0 -0.48 l1.92 -1.44 l0.64 0 z M130.27200000000002 15.48 l2.72 -2.08 l0 0.52 l-2.72 2.04 l0 -0.48 z M130.27200000000002 17.08 l0 -0.48 l2.68 -2.04 l0.04 0 l0 0.44 z M130.27200000000002 17.68 l2.76 -2.04 c0.12 0.12 0.16 0.2 0.24 0.32 l-2.84 2.08 c-0.04 0 -0.16 -0.28 -0.16 -0.36 z M131.312 18.52 l-0.44 -0.16 l2.88 -2.16 l0.04 0 l0.44 0.12 z M142.07200000000003 18.88 l3 -2.24 l0.32 0 c0.04 0.04 0.04 0.12 0.04 0.2 l-2.72 2.04 l-0.04 0 l-0.6 0 z M131.83200000000002 19.28 l0 -0.52 l2.72 -2.04 l0 0.48 z M142.872 19.88 l-0.08 -0.44 l2.76 -2.04 l0.04 -0.04 l0.08 0.44 z M131.83200000000002 19.88 l2.72 -2.04 l0 0.44 l-2.72 2.04 l0 -0.44 z M131.83200000000002 20.96 l2.72 -2.04 l0 0.48 l-2.72 2.04 l0 -0.48 z M131.83200000000002 22.56 l0 -0.48 l2.72 -2.04 l0 0.48 z M131.83200000000002 23.68 l0 -0.48 l2.72 -2.04 l0 0.48 z M131.83200000000002 24.32 l2.72 -2.04 l0 0.48 l-2.72 2.04 l0 -0.48 z M131.83200000000002 25.92 l0 -0.48 l2.72 -2.04 l0 0.48 z M131.83200000000002 27.04 l0 -0.48 l2.72 -2.04 l0 0.48 z M131.83200000000002 27.68 l2.72 -2.08 l0 0.52 l-2.72 2.04 l0 -0.48 z M131.83200000000002 28.8 l2.72 -2.08 l0 0.52 l-2.72 2.04 l0 -0.48 z M131.83200000000002 30.4 l0 -0.48 l2.72 -2.08 l0 0.52 z M142.15200000000002 29.16 l-0.44 0 l1.04 -0.76 c0 0.32 -0.24 0.76 -0.6 0.76 z M131.83200000000002 31.04 l2.72 -2.08 l0 0.48 l-2.72 2.08 l0 -0.48 z M131.83200000000002 32.12 l2.72 -2.04 l0 0.48 l-2.72 2.08 l0 -0.52 z M130.27200000000002 35.480000000000004 l2.72 -2.04 l0 0.48 l-2.72 2.08 l0 -0.52 z M130.27200000000002 36.6 l2.72 -2.04 l0 0.48 l-2.72 2.08 l0 -0.52 z M130.27200000000002 38.24 l0 -0.52 l2.72 -2.04 l0 0.48 z M130.27200000000002 38.84 l2.72 -2.04 c0.04 0.16 0.08 0.28 0.08 0.44 l-0.04 0.04 l-2.72 2 l-0.04 0.04 l0 -0.48 z M130.51200000000003 39.8 l2.84 -2.12 c0.2 0.08 0.32 0.08 0.52 0.08 l-2.96 2.24 c-0.16 0 -0.32 -0.12 -0.4 -0.2 z M131.752 40 l2.96 -2.24 l0.64 0 l-2.96 2.24 l-0.64 0 z M133.872 40 l-0.64 0 l2.96 -2.24 l0.64 0 z M135.35200000000003 40 l-0.64 0 l2.92 -2.2 c0.04 -0.04 0.08 -0.04 0.08 -0.04 l0.64 0 z M136.192 40 l3 -2.24 l0.64 0 l-2.92 2.2 c-0.04 0.04 -0.04 0.04 -0.08 0.04 l-0.64 0 z M137.71200000000002 40 l2.96 -2.24 l0.64 0 l-2.96 2.24 l-0.64 0 z M139.83200000000002 40 l-0.64 0 l2.96 -2.24 l0.68 0 z M140.67200000000003 40 l3 -2.24 l0.56 0 l-2.96 2.24 l-0.6 0 z M142.752 40 l-0.64 0 l2.96 -2.24 l0.68 0 z M143.592 40 l3 -2.24 l0.64 0 l-2.96 2.24 l-0.68 0 z M145.11200000000002 40 l2.32 -1.76 l0 0.48 l-1.68 1.28 l-0.64 0 z M146.592 40 l0.84 -0.6 c0 0.32 -0.4 0.6 -0.72 0.6 l-0.12 0 z M165.14000000000001 31.28 l0 -15.52 l-0.96 -0.28 c-0.32 -0.12 -0.56 -0.44 -0.56 -0.76 l0 -3.96 c0 -0.28 0.28 -0.76 0.6 -0.76 l12.12 0 c5 0 6.68 3.36 6.68 7.8 l0 1.64 l-0.08 2.16 c-0.08 1.32 -0.72 2.84 -1.68 3.76 c-0.04 0.04 -0.28 0.2 -0.28 0.24 c0.04 0.04 0.12 0.12 0.16 0.12 c1.2 0.96 1.64 2.76 1.68 4.24 l0.04 1.32 c0.16 0.08 0.8 0.28 0.96 0.32 c0.32 0.12 0.6 0.36 0.6 0.72 l0 4 c0 0.36 -0.32 0.76 -0.68 0.76 l-5.64 0 c-0.36 0 -0.64 -0.48 -0.64 -0.8 l0 -5.16 c0 -1.08 -0.48 -2.4 -1.72 -2.4 l-5.16 0 l0 0.68 l0.52 0 l-0.52 0.4 l0 0.64 l1.36 -1.04 l0.64 0 l-2 1.52 l0 0.36 l0.24 0.08 l0 0 l2.6 -1.96 l0.68 0 l-2.8 2.08 c0.52 0.2 0.88 0.4 0.88 1 l0 3.72 c0 0.36 -0.24 0.88 -0.68 0.88 l-7.24 0 c-0.36 0 -0.64 -0.44 -0.64 -0.76 l0 -3.96 c0 -0.32 0.24 -0.64 0.52 -0.72 z M160.22000000000003 14.16 l0 -0.48 l1.04 -0.76 l0.64 0 z M160.22000000000003 14.8 l2.52 -1.88 l0.2 0 l0 0.32 l-2.72 2.04 l0 -0.48 z M160.22000000000003 15.920000000000002 l2.72 -2.04 l0 0.48 l-2.72 2.04 l0 -0.48 z M160.22000000000003 17.52 l0 -0.48 l2.68 -2 c0.08 0.04 0.08 0.32 0.08 0.44 z M160.34000000000003 18.08 l2.84 -2.12 c0.12 0.08 0.2 0.12 0.36 0.2 l-2.88 2.16 c-0.08 0 -0.32 -0.24 -0.32 -0.24 z M170.58000000000004 15.96 l0 1.08 c0.08 -0.04 0.48 -0.36 0.56 -0.4 l0.64 0 l-1.2 0.88 l0 0.64 l2.04 -1.52 l0.64 0 l-2.68 2 l0 4.12 l4.32 0 l2.04 -1.52 c0 0.12 0 0.48 -0.08 0.56 l-1.24 0.92 c1.92 0 1.96 -1.44 2 -2.88 l0 -0.6 c0 -0.64 0 -1.32 -0.12 -1.96 c-0.16 -1.32 -1.04 -1.32 -2.2 -1.32 l-0.24 0 l-4.48 0 z M161.66000000000003 18.64 l-0.44 -0.12 l2.88 -2.16 l0.04 0 l0.36 0.08 l0 0.12 l-2.76 2.08 c-0.04 0 -0.04 0.04 -0.08 0.04 l0 -0.04 z M171.14000000000001 18.88 l3 -2.24 l0.6 0 l-2.96 2.24 l-0.64 0 z M172.62000000000003 18.92 l-0.04 0 l2.92 -2.2 c0.12 0 0.48 0.04 0.52 0.08 l-2.88 2.16 c0 0.04 0 0.04 -0.04 0.04 c-0.16 0 -0.36 -0.08 -0.48 -0.08 z M173.66000000000003 19.2 l2.84 -2.08 c0.12 0.04 0.24 0.2 0.24 0.28 l-2.8 2.08 c-0.08 -0.08 -0.2 -0.16 -0.28 -0.28 z M161.78000000000003 19.72 l0 -0.48 l2.72 -2.04 l0 0.48 z M174.10000000000002 20 l2.76 -2.08 l0 0.04 s0.04 0.24 0.04 0.44 l-2.76 2.04 z M161.78000000000003 20.84 l0 -0.48 l2.72 -2.08 l0 0.52 z M174.22000000000003 21.04 l2.72 -2.04 c0.04 0.08 0.04 0.28 0.04 0.44 l-2.76 2.08 l0 -0.4 l0 -0.08 z M161.78000000000003 21.48 l2.72 -2.08 l0 0.52 l-2.72 2.04 l0 -0.48 z M174.22000000000003 22.12 l2.76 -2.04 l0 0.2 l0 0.2 c0 0.04 0 0.08 -0.04 0.08 l-2.72 2.08 l0 -0.52 z M161.78000000000003 23.04 l0 -0.44 l2.72 -2.08 l0 0.44 z M161.78000000000003 24.16 l0 -0.52 l2.72 -2.04 l0 0.48 z M161.78000000000003 24.759999999999998 l2.72 -2.04 l0 0.48 l-2.72 2.04 l0 -0.48 z M175.58000000000004 22.72 l0 0 z M161.78000000000003 25.880000000000003 l2.72 -2.04 l0 0.48 l-2.72 2.04 l0 -0.48 z M161.78000000000003 27.48 l0 -0.48 l2.72 -2.04 l0 0.48 z M161.78000000000003 28.119999999999997 l2.72 -2.04 l0 0.48 l-2.72 2.04 l0 -0.48 z M161.78000000000003 29.240000000000002 l2.72 -2.04 l0 0.48 l-2.72 2.04 l0 -0.48 z M161.78000000000003 30.84 l0 -0.48 l2.72 -2.04 l0 0.48 z M171.94000000000003 31.64 l3 -2.24 c0.2 0 0.4 0 0.56 0.08 l-2.92 2.16 c-0.04 0.04 0 0.04 -0.04 0.04 c-0.2 0 -0.4 -0.04 -0.6 -0.04 z M161.78000000000003 31.96 l0 -0.48 l2.68 -2 c0 -0.04 0.04 -0.04 0.04 -0.04 l0 0.48 z M173.14000000000001 31.880000000000003 l2.84 -2.16 c0.04 0 0.28 0.24 0.28 0.28 l-2.84 2.12 c-0.08 -0.08 -0.2 -0.16 -0.28 -0.24 z M173.74000000000004 32.56 c0 -0.04 0.04 -0.04 0.04 -0.04 l2.76 -2.08 l0.12 0.36 c0 0.04 0 0.04 -0.04 0.04 l-2.72 2.04 c-0.08 -0.08 -0.16 -0.24 -0.16 -0.32 z M161.78000000000003 32.6 l2.72 -2.04 l0 0.48 l-2.72 2.04 l0 -0.48 z M174.02000000000004 33.44 l2.72 -2.04 s0.04 0.04 0.04 0.08 l0 0.36 l-2.76 2.08 l0 -0.04 l0 -0.44 z M174.06000000000003 35 l0 -0.48 l2.72 -2.04 l0 0.48 z M161.78000000000003 34.2 l0 -0.48 l1.24 -0.96 c-0.04 0.2 -0.04 0.36 -0.08 0.52 z M174.06000000000003 35.64 l2.72 -2.04 l0 0.48 l-2.72 2.04 l0 -0.48 z M160.22000000000003 36.48 l0 -0.48 l2.72 -2.08 l0 0.52 z M160.74000000000004 34.56 l0.92 -0.28 l-1.44 1.08 c0 -0.4 0.2 -0.68 0.52 -0.8 z M174.06000000000003 37.24 l0 -0.48 l2.72 -2.04 l0 0.48 z M160.22000000000003 37.12 l2.72 -2.08 l0 0.48 l-2.72 2.04 l0 -0.44 z M174.06000000000003 38.36 l0 -0.48 l2.72 -2.04 l0 0.48 z M160.22000000000003 38.68 l0 -0.48 l2.68 -2.04 l0.04 0 l0 0.48 z M174.06000000000003 39 l2.72 -2.04 c0.04 0.08 0.12 0.32 0.12 0.4 l-2.8 2.08 c-0.04 -0.12 -0.04 -0.24 -0.04 -0.36 l0 -0.08 z M160.22000000000003 39.32 c0 -0.04 0 -0.04 0.04 -0.04 l2.72 -2.04 c0.08 0.12 0.16 0.2 0.24 0.32 l-2.8 2.08 l-0.04 0.04 c-0.04 0 -0.16 -0.32 -0.16 -0.36 z M174.38000000000002 39.88 l2.88 -2.16 l0.12 0 c0.12 0.04 0.28 0.04 0.4 0.04 l-2.96 2.24 c-0.16 0 -0.28 -0.04 -0.44 -0.12 z M160.82000000000002 39.96 l2.96 -2.2 l0.64 0 l-2.96 2.24 l-0.64 0 l0 -0.04 z M162.94000000000003 40 l-0.64 0 l2.96 -2.24 l0.64 0 z M163.78000000000003 40 l2.96 -2.24 l0.68 0 l-3 2.24 l-0.64 0 z M165.26000000000002 40 l3 -2.24 l0.48 0 l0 0.12 l-2.8 2.12 l-0.68 0 z M176.3 40 l-0.64 0 l2.96 -2.24 l0.64 0 z M177.78000000000003 40 l-0.64 0 l2.96 -2.24 l0.68 0 z M178.62000000000003 40 l2.4 -1.8 l0 0.48 l-1.72 1.32 l-0.68 0 z M167.42000000000002 40 l-0.64 0 l1.96 -1.52 l0 0.52 z M180.14000000000004 40 l0.88 -0.68 c0 0.36 -0.44 0.68 -0.76 0.68 l-0.12 0 z M203.168 10.120000000000001 l2.24 -0.12 l1.76 0 l0.96 0.04 l1.52 0.16 c4.08 0.4 4.96 4.16 4.96 7.6 c0 0.44 0.04 1.52 -0.64 1.52 l-4.04 0 c-0.6 0 -0.68 -0.72 -0.68 -1.2 l-0.04 -1.52 c-0.04 -0.88 -1.28 -0.92 -1.88 -0.92 l-2 0 c-0.48 0 -0.96 0.08 -1.44 0.2 c-1.04 0.16 -1.2 0.48 -1.24 1.48 l1.2 -0.92 c0.16 -0.08 0.52 -0.08 0.68 -0.08 l-1.92 1.44 l0 0.64 l2.76 -2.08 l0.64 0 l-2.96 2.24 l-0.44 0 c0 1.4 0.56 1.6 1.84 1.72 l1.28 0.12 l0.12 0 l0 -0.04 l2.72 -2.04 c0.04 0.12 0 0.28 0 0.32 l0 0.16 l-2.12 1.6 l-0.04 0.04 l0.72 0.08 l1.52 -1.16 c0.04 0.04 0.08 0.16 0.08 0.2 s0.08 0.12 0.08 0.16 l-1.08 0.84 l0.08 0 s0.44 0.04 0.68 0.04 l0.88 -0.64 l0.64 0 l-0.96 0.72 l0.64 0.08 l0.08 0 l1.08 -0.8 l0.4 0 l0 0.16 l-1 0.76 l0.6 0.12 c0.16 0 0.24 -0.2 0.4 -0.24 l0 0.36 l0.04 0 c3.56 1.16 3.72 4.2 3.72 7.4 c0 8.32 -3.4 8.52 -10.48 8.52 l-2.12 -0.16 c-3.4 -0.24 -5.12 -3.24 -5.2 -6.4 l-0.04 -1.88 l0 -0.2 c0 -0.56 0.04 -1.08 0.6 -1.28 l0.52 0 l1.6 -1.16 c0.12 0 0.28 0.08 0.4 0.16 l-1.36 1 l0.84 0 l1.12 -0.8 l0.48 0.12 l-0.96 0.68 l0.84 0 l0.8 -0.6 l0.52 0.08 l-0.68 0.52 c0.2 0.04 0.32 0.12 0.48 0.28 l0.92 -0.68 l0 -0.04 l0.56 0.08 l-1.32 1 c-0.04 0.08 -0.04 0.12 -0.04 0.12 c0 0.08 0.04 0.4 0.04 0.48 l2.08 -1.52 l0.04 -0.04 c0.16 0 0.36 0.04 0.52 0.04 l-2.64 2 l0 0.24 c0 1.48 0 2.04 1.72 2.2 c0.64 0.08 1.24 0.08 1.88 0.08 l0.2 0 l0 -0.36 l2.68 -2 c0.04 0.08 0.04 0.2 0.04 0.32 l0 0.12 l-2.56 1.92 l0.28 0 l0.28 0 l0.28 0 l1.68 -1.24 l0 0.08 c0 0.08 0 0.32 -0.04 0.36 l-0.88 0.72 c0.24 0 0.44 -0.12 0.64 -0.16 c1 -0.36 0.92 -1.4 0.96 -2.28 c0 -0.48 -0.04 -0.92 -0.08 -1.4 c-0.16 -0.96 -0.96 -1.16 -1.8 -1.2 l-2.08 -0.08 l-2.16 -0.16 l-1.64 -0.28 c-3.04 -0.44 -4.48 -3.4 -4.6 -6.2 l-0.04 -1.56 c0 -4.12 1.2 -7.6 5.88 -7.88 z M197.40800000000002 14.04 l-2.52 1.88 c0 -0.12 0.44 -0.72 0.6 -0.92 l1.84 -1.4 c0.04 -0.04 0.36 -0.16 0.4 -0.16 z M194.448 16.88 l2.64 -1.96 l0 0.04 s-0.12 0.36 -0.16 0.56 l-2.64 1.96 l0 -0.12 c0.04 -0.08 0.12 -0.4 0.16 -0.48 z M194.12800000000001 18.2 l2.68 -2 l-0.08 0.56 l-2.68 2 l0.08 -0.52 l0 -0.04 z M203.88800000000003 18.56 l2.92 -2.16 l0 -0.04 c0.24 0 0.36 0 0.6 0.08 l-2.92 2.16 l-0.16 0 s-0.36 0 -0.44 -0.04 z M205.168 18.72 l2.84 -2.12 c0.12 0 0.28 0.12 0.36 0.2 l-2.76 2.08 c-0.2 -0.08 -0.32 -0.12 -0.44 -0.16 z M205.80800000000002 19.32 l2.76 -2.04 l0 0.4 l0 0.08 l-2.72 2 c0 -0.12 -0.04 -0.28 -0.04 -0.44 z M193.96800000000002 19.84 l0 -0.4 l2.68 -2.04 l0 0.12 c0 0.12 0.08 0.32 -0.04 0.4 l-2.64 2 l0 -0.08 z M193.92800000000003 20.56 l2.68 -2 l0.04 0 l0 0.44 l-2.68 2 l-0.04 0.04 l0 -0.48 z M193.96800000000002 21.64 l2.68 -2 c0.04 0.12 0.04 0.24 0.04 0.36 l0 0.08 l-2.68 2 c-0.04 -0.04 -0.08 -0.32 -0.08 -0.4 c0 -0.04 0 -0.04 0.04 -0.04 z M194.04800000000003 22.68 l2.68 -2 c0.04 0.16 0.08 0.44 0.08 0.44 l-2.76 2.04 c0 -0.08 -0.04 -0.36 -0.04 -0.44 z M194.16800000000003 23.68 l2.72 -2 l0.04 0.32 l0.04 0.04 s-0.04 0 -0.04 0.04 l-2.72 2 c0 -0.08 -0.04 -0.28 -0.04 -0.4 z M194.32800000000003 24.6 l0.04 0 l2.72 -2.04 l0.12 0.4 l-2.76 2.04 c0 -0.04 -0.04 -0.12 -0.04 -0.16 c-0.04 -0.04 -0.08 -0.24 -0.08 -0.24 z M194.64800000000002 25.48 l2.72 -2.04 l0.04 0 l0.16 0.32 l-2.76 2.08 c-0.04 -0.08 -0.12 -0.2 -0.16 -0.36 z M195.04800000000003 26.28 l2.76 -2.04 l0.04 -0.04 l0 0.04 l0.2 0.28 l-2.8 2.08 s-0.12 -0.2 -0.2 -0.32 z M195.568 27 l2.8 -2.08 l0.28 0.28 l-2.84 2.08 s-0.12 -0.16 -0.24 -0.28 z M196.24800000000002 27.6 l2.8 -2.08 l0.36 0.2 l-2.8 2.12 c-0.12 -0.04 -0.32 -0.16 -0.36 -0.24 z M203.08800000000002 29.119999999999997 l2.88 -2.2 l0.04 0 l0.08 0 l0.24 0 l0.28 0 l-2.92 2.2 c-0.04 0.04 0 0 -0.04 0 l-0.56 0 z M204.96800000000002 29.240000000000002 l-0.52 -0.08 l2.92 -2.16 c0.12 0 0.36 0.04 0.48 0.08 z M205.568 29.4 l2.84 -2.12 c0.16 0 0.32 0.24 0.32 0.24 l-2.76 2.08 c-0.12 -0.08 -0.36 -0.16 -0.4 -0.2 z M206.168 30.04 l2.72 -2.04 l0.04 0 c0.08 0.08 0.04 0.28 0.04 0.4 l0 0.04 l-2.72 2.04 c0 -0.16 -0.04 -0.28 -0.08 -0.44 z M193.92800000000003 30.439999999999998 l0.52 -0.4 l0.64 0 l-1.28 0.96 c0 -0.12 0.04 -0.52 0.12 -0.56 z M193.80800000000002 31.64 l2.12 -1.6 l0.6 0 l0 0.04 l-2.72 2.04 l0 -0.48 z M193.80800000000002 32.72 l2.72 -2.04 c0 0.08 0.04 0.32 0.04 0.48 l-2.72 2.04 c-0.04 -0.16 -0.04 -0.28 -0.04 -0.48 z M193.88800000000003 33.76 l2.72 -2 s0.04 0.28 0.04 0.44 l-2.72 2 s-0.04 -0.24 -0.04 -0.44 z M194.008 34.76 l2.72 -2.04 c0.04 0.16 0.12 0.4 0.12 0.44 l-2.76 2.04 l-0.08 -0.4 l0 -0.04 z M194.32800000000003 36.12 l-0.12 -0.4 l2.72 -2.04 l0.04 0 l0.12 0.36 z M194.68800000000002 36.92 l-0.16 -0.32 l2.76 -2.08 c0.04 0 0.04 0 0.04 0.04 l0.16 0.28 z M194.96800000000002 37.32 l2.76 -2.04 l0 0 l0.2 0.28 l0 0.04 l-2.76 2.08 l-0.2 -0.32 l0 -0.04 z M195.448 38.08 l2.8 -2.08 l0.04 -0.04 l0.28 0.28 l-2.84 2.12 l-0.16 -0.16 c0 -0.04 -0.08 -0.12 -0.12 -0.12 z M196.12800000000001 38.68 l2.8 -2.08 l0.04 -0.04 l0.32 0.24 l-2.84 2.12 s-0.12 -0.12 -0.2 -0.16 c0 0 -0.12 -0.04 -0.12 -0.08 z M196.96800000000002 39.16 l2.8 -2.12 l0.04 0 l0.4 0.16 l-2.84 2.12 l-0.04 0.04 c-0.08 0 -0.32 -0.12 -0.36 -0.2 z M206.44800000000004 39.8 l-0.04 0 l3 -2.24 c0.04 -0.04 0.44 -0.12 0.52 -0.12 c0.04 -0.04 0.36 -0.12 0.44 -0.12 l-3.12 2.32 c-0.04 0.04 -0.72 0.16 -0.8 0.16 z M197.92800000000003 39.56 l2.88 -2.16 l0.48 0.12 l-2.92 2.16 c-0.12 0 -0.32 -0.04 -0.44 -0.12 z M199.08800000000002 39.8 l-0.04 0 l2.88 -2.16 c0.04 -0.04 0.04 0 0.08 0 c0.16 0 0.36 0 0.52 0.04 l-2.92 2.16 c-0.2 0 -0.48 -0.04 -0.52 -0.04 z M204.728 39.96 l2.96 -2.2 c0.08 -0.08 0.6 -0.08 0.72 -0.08 l-2.96 2.2 c0 0.04 -0.4 0.04 -0.72 0.08 z M200.40800000000002 39.92 l-0.04 0 l2.92 -2.2 l0.08 0 c0.16 0 0.36 0 0.52 0.04 l-2.92 2.2 l-0.08 0 c-0.08 0 -0.44 -0.04 -0.48 -0.04 z M203.20800000000003 40 l2.92 -2.2 l0.04 0 c0 -0.04 0.36 -0.04 0.64 -0.04 l-2.96 2.24 l-0.64 0 z M201.76800000000003 39.96 l2.92 -2.16 l0.64 0 l-2.96 2.2 l-0.16 0 c-0.16 0 -0.28 0 -0.44 -0.04 z M244.66400000000002 30.92 l-0.16 0.48 l0.52 -0.16 l0.04 -0.08 l5.48 -20.52 c0.04 -0.24 0.24 -0.64 0.52 -0.64 l5.76 0 c0.28 0 0.52 0.28 0.56 0.52 l5.52 20.68 c0.04 0.04 0.04 0.08 0.04 0.08 l1.12 0.36 c0.28 0.08 0.52 0.44 0.52 0.72 l0 4 c0 0.32 -0.32 0.72 -0.68 0.72 l-7.36 0 c-0.4 0 -0.64 -0.44 -0.68 -0.76 l0 -0.72 c0 -1.04 0 -2.08 0.04 -3.12 c0 -0.32 0.12 -0.68 0.44 -0.8 l0.72 -0.24 l0.04 -0.04 l-0.72 -2.68 s-2.84 0 -4.08 -0.04 l-0.72 0 l-0.44 0 l-0.16 0.8 l0 0.04 l0.16 -0.16 l0.68 0 l-0.92 0.68 c-0.04 0.04 -0.04 0.04 -0.04 0.08 l-0.12 0.6 l0 0.08 l1.88 -1.4 l0.64 0 l-2.6 1.96 l0 0 l0.52 0.2 l2.92 -2.16 l0.6 0 l-2.96 2.24 l-0.36 0 c0.24 0.12 0.44 0.4 0.44 0.72 l0 3.96 c0 0.32 -0.28 0.76 -0.64 0.76 l-7.36 0 c-0.36 0 -0.64 -0.44 -0.64 -0.76 l0 -3.96 c-0.24 0 -0.48 0.24 -0.56 0.44 c-0.04 0.04 -0.04 0.12 -0.08 0.16 l-0.76 0.56 l0.16 -0.6 s0.04 0 0.04 -0.04 l2.64 -1.96 l0.04 0 z M248.46400000000003 12.920000000000002 l-1.44 1.08 c0 -0.08 0.12 -0.44 0.12 -0.52 l0.04 -0.08 l0.64 -0.48 l0.64 0 z M246.78400000000002 14.8 l2.56 -1.88 l0.12 0 l-0.12 0.48 l-2.72 2 z M246.46400000000003 16.2 l2.64 -2 l-0.16 0.6 l-2.68 2 l0 -0.04 s0.12 -0.36 0.2 -0.56 z M248.58400000000003 16.2 l-2.68 2 l0.16 -0.56 l0 -0.04 l2.64 -1.96 l0.04 -0.04 z M255.18400000000003 23.2 l-1.32 -6.32 l-0.4 1.84 l0 0.08 c0 0.08 0.08 0.28 0.08 0.36 c-0.08 0.04 -0.24 0.08 -0.24 0.2 l-0.16 0.72 l0.52 -0.4 l0.08 0.4 c0 0.04 0 0.04 -0.04 0.04 l-0.72 0.56 l-0.16 0.76 l1.04 -0.8 l0.08 0.44 l-1.24 0.92 c-0.04 0 -0.04 0.04 -0.04 0.04 l-0.16 0.72 l1.56 -1.12 c0 0.08 0.08 0.32 0.08 0.4 l-0.04 0.04 l-1.56 1.16 l0.12 0 l0.72 0 l0.88 -0.64 l0.08 0.4 c-0.04 0.04 -0.24 0.2 -0.28 0.2 l0.2 0 l0.92 0 z M248.18400000000003 17.6 l-2.64 2 l0 -0.04 s0.12 -0.56 0.16 -0.56 l2.6 -1.96 l0.04 -0.04 c0 0.08 -0.12 0.48 -0.16 0.6 z M247.824 19 l-2.68 2 s0.12 -0.4 0.16 -0.6 l2.68 -2 c0 0.04 -0.12 0.56 -0.16 0.6 z M244.78400000000002 22.4 l0.16 -0.6 l2.68 -2.04 l-0.16 0.6 l0 0.04 l-2.64 1.96 z M244.424 23.72 l0.12 -0.52 l2.68 -2 l-0.12 0.52 z M244.22400000000002 24.52 l2.68 -2 l-0.16 0.6 l-2.68 2 l0.12 -0.56 c0 -0.04 0.04 -0.04 0.04 -0.04 z M243.86400000000003 25.92 l2.64 -2 s-0.08 0.4 -0.16 0.6 l-2.68 2 c0 -0.04 0.16 -0.56 0.2 -0.6 z M243.46400000000003 27.32 l2.68 -2 l0 0.04 s-0.12 0.36 -0.16 0.56 l-2.68 2 c0 -0.08 0.12 -0.48 0.16 -0.6 z M243.104 28.72 l2.68 -2 l-0.16 0.6 l-2.72 2 z M242.704 30.119999999999997 l2.68 -2 l0 0.04 s-0.08 0.36 -0.16 0.56 l-2.68 2 z M252.58400000000003 31.64 l2.96 -2.24 l0.2 0 l0.04 0.28 l0 0.04 l-2.76 2.08 c0 -0.04 -0.04 -0.12 -0.04 -0.16 l-0.4 0 z M242.34400000000002 31.48 l2.68 -2 l-0.16 0.64 l-2.68 2 l0 -0.04 l0.16 -0.56 l0 -0.04 z M253.18400000000003 32.28 l2.72 -2 c0.08 0.08 0.16 0.32 0.16 0.32 l0 0.04 l-2.8 2.08 c-0.04 -0.08 -0.08 -0.32 -0.08 -0.44 z M253.46400000000003 33.2 l2.72 -2.04 l0.12 0.36 c0 0.04 0 0.04 -0.04 0.08 l-2.76 2.04 l-0.08 -0.36 c0 -0.04 0 -0.04 0.04 -0.08 z M253.66400000000002 34.2 c0 -0.04 0.04 -0.04 0.04 -0.04 l1.56 -1.16 c0 0.16 -0.04 0.32 -0.04 0.48 l-2.72 2.04 l0 -0.08 c0 -0.12 0 -0.4 0.12 -0.48 c0.08 -0.08 0.44 -0.36 0.6 -0.44 l0.48 -0.2 z M239.78400000000002 35.64 l2.76 -2.04 l0 0.48 l-2.76 2.08 l0 -0.52 z M252.46400000000003 36.16 l0.04 0 l2.72 -2.04 l0 0.48 l-2.76 2.08 l0 -0.52 z M240.38400000000001 34.6 l-0.48 0.32 c0.08 -0.12 0.28 -0.32 0.48 -0.32 z M239.78400000000002 36.76 l2.76 -2.04 l0 0.48 l-2.76 2.08 l0 -0.52 z M252.46400000000003 37.28 l0.04 0 l2.72 -2.04 l0 0.2 l0 0.28 l-2.76 2.08 l0 -0.2 l0 -0.16 l0 -0.16 z M239.78400000000002 38.36 l0 -0.48 l2.68 -2 c0.04 0 0.04 -0.04 0.08 -0.04 l0 0.48 z M252.46400000000003 38.44 l0 -0.04 l2.76 -2.04 l0 0.44 c0 0.04 -0.04 0.04 -0.08 0.08 l-2.68 2.04 l0 -0.08 l0 -0.4 z M239.78400000000002 39 l2.76 -2.04 c0 0.12 0.08 0.28 0.08 0.4 l-2.8 2.08 c-0.04 -0.08 -0.04 -0.24 -0.04 -0.32 l0 -0.12 z M252.544 39.48 l2.76 -2.08 l0.04 0 c0.08 0.12 0.16 0.16 0.28 0.28 l-2.88 2.12 c-0.04 0 -0.2 -0.24 -0.2 -0.32 z M240.14400000000003 39.88 l2.84 -2.16 c0.2 0 0.4 0.04 0.56 0.04 l-2.96 2.24 l-0.08 0 c-0.16 0 -0.28 -0.04 -0.36 -0.12 z M241.424 40 l2.96 -2.24 l0.68 0 l-3 2.24 l-0.64 0 z M242.90400000000002 40 l3 -2.24 l0.64 0 l-3 2.24 l-0.64 0 z M245.06400000000002 40 l-0.64 0 l2.96 -2.24 l0.64 0 z M253.34400000000002 40 l3 -2.24 l0.64 0 l-3 2.24 l-0.64 0 z M255.50400000000002 40 l-0.64 0 l2.96 -2.24 l0.64 0 z M256.98400000000004 40 l-0.64 0 l2.96 -2.24 l0.64 0 z M257.824 40 l2.96 -2.24 l0.4 0 l0 0.16 l-2.76 2.08 l-0.6 0 z M246.544 40 l-0.64 0 l2.56 -1.92 l0 0.48 z M259.904 40 l-0.64 0 l1.92 -1.44 l0 0.48 z M247.824 40 l-0.44 0 l1.08 -0.8 c0 0.32 -0.28 0.8 -0.64 0.8 z M278.89200000000005 31.28 l0 -15.52 l-0.96 -0.28 c-0.32 -0.12 -0.56 -0.44 -0.56 -0.76 l0 -3.96 c0 -0.28 0.28 -0.76 0.6 -0.76 l8.32 0 c0.28 0 0.48 0.32 0.56 0.52 l2.36 5.72 l2.56 -1.92 l0 0.48 l-2.36 1.8 c0.04 0.2 0.08 0.36 0.16 0.48 l2.24 -1.64 c0.04 0.12 0.04 0.28 0.12 0.4 l-2.2 1.64 l0.2 0.48 l2.4 -1.8 s0.28 0.08 0.48 0.12 l-2.72 2.04 l0.56 1.32 l2.76 -2.04 l0 0.36 l0 0.12 l-2.56 1.92 c0 0.12 0.12 0.4 0.16 0.48 l2.4 -1.76 l0 0.36 l0 0.08 l-2.24 1.68 l0 0.04 l0.2 0.48 l2.08 -1.56 l0 0.48 l-1.92 1.44 c0 0.08 0.12 0.36 0.24 0.44 l1.68 -1.28 c0 0.08 0 0.4 0.04 0.48 l-1.64 1.2 l0.2 0.48 l0.04 0 l1.4 -1.04 l0 0.44 l-1.24 0.92 c0 0.16 0.12 0.44 0.2 0.52 l1.04 -0.8 l0 0.48 l-0.88 0.68 c0 0.08 0.08 0.36 0.16 0.48 l0.76 -0.52 l0 0.32 l0 0.12 l-0.6 0.44 c0.04 0.12 0.16 0.4 0.2 0.48 l0.4 -0.28 c0.04 0.12 0.04 0.2 0.04 0.32 c0 0.04 0 0.12 -0.04 0.16 c0 0 -0.2 0.16 -0.24 0.2 l0.2 0.48 l0.08 -0.08 l0 0.28 l0 0.08 l0.68 1.64 l-0.24 -12.52 c0 -0.08 0 -0.08 -0.04 -0.08 c-0.68 -0.2 -1.52 -0.24 -1.52 -1.12 l0 -3.84 c0 -0.32 0.28 -0.8 0.64 -0.8 l7.28 0 c0.32 0 0.6 0.44 0.6 0.72 l0 4 c0 0.36 -0.24 0.64 -0.56 0.76 l-1 0.28 l0 20.52 c0 0.36 -0.28 0.8 -0.64 0.8 l-6.68 0 c-0.28 0 -0.52 -0.32 -0.64 -0.56 l-7.36 -17.84 c0 0.44 0.04 2.12 0.12 2.52 c0.04 0.08 0.12 0.28 0.12 0.28 l0 0.04 c-0.04 0 -0.12 0.08 -0.16 0.2 l0 0.56 l0.36 -0.28 c0.04 0.12 0.16 0.36 0.16 0.36 l-0.52 0.4 l0 0.08 l0 0.52 l0.04 0 c0.08 -0.08 0.52 -0.4 0.68 -0.48 c0.04 0.08 0.12 0.24 0.12 0.36 l-0.8 0.6 l0 0.12 l0 0.52 l1.04 -0.76 c0 0.08 0.08 0.28 0.12 0.36 l-1.16 0.88 l0 0.12 c0 0.2 0 0.32 0.04 0.48 l1.32 -1 c0.04 0.08 0.16 0.32 0.16 0.4 l-1.48 1.08 l0 0.16 l0 0.48 l1.64 -1.24 c0.08 0.04 0.16 0.28 0.16 0.36 l-1.8 1.36 l0 0.2 s0 0.28 0.04 0.4 l2 -1.48 c0.04 0.08 0.12 0.28 0.12 0.36 l-2.12 1.6 l0 0.64 l2.36 -1.76 l0.12 0.32 c0 0.04 -0.04 0.04 -0.04 0.08 l-2.4 1.8 c-0.04 0 -0.04 0 -0.04 0.04 c0 0.12 0 0.52 0.04 0.6 l2.64 -2 c0.04 0.04 0.12 0.28 0.12 0.4 l-2.76 2.08 l0 0.16 l0 0.6 l0 0.08 l0.8 0.28 l2.52 -1.88 c0.08 0.12 0.2 0.36 0.2 0.36 l-2.28 1.68 c0.12 0.12 0.2 0.24 0.28 0.4 l2.16 -1.56 c0.08 0.08 0.16 0.32 0.16 0.32 l-2.24 1.72 l0 0.6 l2.4 -1.8 c0.08 0.04 0.16 0.24 0.2 0.32 l-2.6 2 l0 2.56 c0 0.36 -0.32 0.8 -0.68 0.8 l-7.24 0 c-0.36 0 -0.64 -0.44 -0.64 -0.76 l0 -4.04 c-0.24 0.08 -0.48 0.24 -0.6 0.48 l-1.24 0.96 l0 -0.52 l2.72 -2.04 l0 0.36 z M274.97200000000004 12.920000000000002 l-1 0.76 c0.04 -0.32 0.28 -0.76 0.64 -0.76 l0.36 0 z M273.97200000000004 14.32 l1.84 -1.4 l0.68 0 l-2.52 1.88 l0 -0.48 z M289.85200000000003 12.920000000000002 l-0.76 0.56 c0 -0.28 0.44 -0.56 0.76 -0.56 z M289.052 14.64 l0 -0.48 l1.64 -1.24 l0.64 0 z M289.052 15.280000000000001 l2.72 -2.08 l0 0.48 l-2.72 2.08 l0 -0.48 z M273.97200000000004 15.920000000000002 l0 -0.48 l2.72 -2.08 l0 0.52 z M273.97200000000004 16.56 l2.72 -2.08 l0 0.52 l-2.72 2.04 l0 -0.48 z M273.97200000000004 17.64 l2.76 -2.04 c0.04 0 0.2 0.32 0.2 0.36 l-2.84 2.08 c-0.04 0.04 -0.12 -0.32 -0.12 -0.36 l0 -0.04 z M274.932 18.52 l-0.44 -0.12 l2.88 -2.16 c0.24 0 0.48 0.08 0.48 0.08 l0.04 0.04 l-2.88 2.12 c-0.04 0.04 -0.08 0.04 -0.08 0.04 z M290.492 18.64 l2.88 -2.16 l0 0.36 l0 0.12 l-2.72 2.08 l-0.04 -0.08 l0 -0.28 s-0.08 0 -0.12 -0.04 z M275.53200000000004 18.72 l2.72 -2.04 l0 0.48 l-2.72 2.08 l0 -0.52 z M275.53200000000004 20.36 l0 -0.52 l2.72 -2.04 l0 0.48 z M275.53200000000004 21.48 l0 -0.52 l2.72 -2.04 l0 0.48 z M275.53200000000004 22.08 l2.72 -2.04 l0 0.44 l-2.72 2.04 l0 -0.44 z M275.53200000000004 23.16 l2.72 -2.04 l0 0.48 l-2.72 2.04 l0 -0.48 z M275.53200000000004 24.759999999999998 l0 -0.48 l2.72 -2.04 l0 0.48 z M275.53200000000004 25.4 l2.72 -2.04 l0 0.48 l-2.72 2.04 l0 -0.48 z M275.53200000000004 26.52 l2.72 -2.04 l0 0.48 l-2.72 2.04 l0 -0.48 z M275.53200000000004 28.119999999999997 l0 -0.48 l2.72 -2.08 l0 0.52 z M275.53200000000004 29.240000000000002 l0 -0.48 l2.72 -2.08 l0 0.52 z M275.53200000000004 29.880000000000003 l2.72 -2.08 l0 0.52 l-2.72 2.04 l0 -0.48 z M284.53200000000004 30.92 l2.8 -2.12 c0.04 0.04 0.12 0.28 0.16 0.4 l-2.8 2.08 c-0.08 -0.12 -0.16 -0.36 -0.16 -0.36 z M275.53200000000004 31.48 l0 -0.48 l2.72 -2.08 l0 0.48 z M275.53200000000004 32.6 l0 -0.52 l2.72 -2.04 l0 0.48 z M285.932 34.32 l2.8 -2.08 s0.12 0.2 0.16 0.36 l-2.76 2.08 c-0.08 -0.12 -0.2 -0.36 -0.2 -0.36 z M286.45200000000006 35.56 l-0.16 -0.4 l2.8 -2.08 c0.08 0.16 0.16 0.36 0.16 0.36 z M273.97200000000004 35.480000000000004 l2.72 -2.04 l0 0.48 l-2.72 2.04 l0 -0.48 z M286.77200000000005 36.4 l-0.12 -0.36 l2.8 -2.12 c0.04 0.16 0.16 0.36 0.16 0.36 z M273.97200000000004 37.08 l0 -0.48 l2.68 -2 l0.04 -0.04 l0 0.44 z M287.01200000000006 36.88 l2.76 -2.08 c0.08 0.12 0.16 0.36 0.16 0.36 l-2.8 2.08 c0 -0.04 -0.12 -0.28 -0.12 -0.36 z M287.372 37.72 l2.8 -2.08 s0.08 0.24 0.08 0.4 l-2.76 2.08 c-0.04 -0.08 -0.12 -0.32 -0.12 -0.4 z M273.97200000000004 37.68 l2.72 -2.04 l0 0.48 l-2.72 2.08 l0 -0.52 z M287.732 38.56 l2.76 -2.04 c0.08 0.12 0.16 0.36 0.16 0.36 l-2.8 2.08 c-0.04 -0.08 -0.12 -0.32 -0.12 -0.4 z M273.97200000000004 39.28 l0 -0.48 l2.68 -2 c0.08 0.12 0.12 0.28 0.12 0.4 c-0.04 0 -0.04 0.04 -0.04 0.04 l-2.72 2.04 l-0.04 0 z M288.052 39.44 l2.76 -2.08 l0.04 0 l0.24 0.24 l-2.84 2.12 c-0.08 -0.04 -0.2 -0.16 -0.2 -0.28 z M274.21200000000005 39.76 l2.8 -2.12 c0.08 0 0.16 0.08 0.2 0.08 c0.12 0.04 0.2 0.04 0.32 0.04 l-2.96 2.2 c-0.16 0 -0.28 -0.08 -0.36 -0.2 z M276.052 40 l-0.68 0 l3 -2.24 l0.64 0 z M276.89200000000005 40 l2.96 -2.24 l0.64 0 l-2.96 2.24 l-0.64 0 z M278.372 40 l2.96 -2.24 l0.64 0 l-2.96 2.24 l-0.64 0 z M288.732 40 l3 -2.24 l0.64 0 l-2.96 2.24 l-0.68 0 z M290.25200000000007 40 l2.96 -2.24 l0.64 0 l-2.96 2.24 l-0.64 0 z M291.732 40 l2.96 -2.24 l0.68 0 l-3 2.24 l-0.64 0 z M293.89200000000005 40 l-0.68 0 l2.76 -2.08 l0.04 0 l0 0.48 z M279.85200000000003 40 l2.64 -2 l0 0.48 l-2 1.52 l-0.64 0 z M295.372 40 l-0.64 0 l1.28 -0.96 c0 0.16 0 0.44 -0.12 0.56 z M281.89200000000005 40 l-0.56 0 l1.16 -0.88 c0 0.4 -0.24 0.88 -0.6 0.88 z M315.28000000000003 31.32 l0 -15.52 l-0.92 -0.24 c-0.36 -0.12 -0.6 -0.44 -0.6 -0.8 l0 -4 c0 -0.28 0.28 -0.76 0.6 -0.76 l11.76 0 c6.04 0 8.2 4.24 8.2 9.52 l0 7.8 l-0.12 1.76 c-0.32 4.6 -2.96 8 -7.72 8 l-12.08 0 c-0.36 0 -0.64 -0.44 -0.64 -0.76 l0 -4 c-0.44 0 -0.64 0.48 -0.64 0.84 l-1.2 0.88 l0 -0.48 l1.88 -1.4 c0.04 -0.04 0.08 -0.2 0.12 -0.24 c0.16 -0.24 0.4 -0.28 0.68 -0.36 c0.04 -0.04 0.04 -0.04 0.08 -0.04 z M311.84000000000003 12.920000000000002 l-1.48 1.12 l0 -0.4 c0 -0.04 0 -0.12 0.04 -0.16 l0.8 -0.56 l0.64 0 z M310.36 14.64 l2.32 -1.72 l0.44 0 l0 0.16 l-2.76 2.08 l0 -0.52 z M310.36 15.760000000000002 l2.76 -2.04 l0 0.48 l-2.76 2.08 l0 -0.52 z M310.36 17.36 l0 -0.48 l2.68 -2 c0.04 0 0.04 -0.04 0.08 -0.04 l0 0.48 z M310.40000000000003 17.96 l2.84 -2.08 c0.08 0.12 0.16 0.16 0.24 0.28 l-2.84 2.12 s-0.08 -0.04 -0.12 -0.08 s-0.12 -0.16 -0.12 -0.24 z M320.72 15.96 l0.04 0.92 c0.04 -0.04 0.24 -0.2 0.32 -0.24 l0.64 0 l-1 0.76 l0 0.6 l1.84 -1.36 l0.68 0 l-2.52 1.88 l0 12.6 l4.88 0 l2.44 -1.84 l0 0.04 c0 0.04 -0.16 0.52 -0.16 0.56 l-1.64 1.24 c2.16 0 2.68 -2.76 2.68 -4.48 l0 -6.84 c0 -2.64 -0.48 -3.84 -3.32 -3.84 l-4.88 0 z M311.6 18.64 l-0.44 -0.12 l2.92 -2.16 l0.04 0 l0.44 0.12 l-2.88 2.16 l-0.08 0 z M321.08000000000004 18.88 l3 -2.24 l0.64 0 l-3 2.24 l-0.64 0 z M322.56 18.88 l2.92 -2.2 c0.04 -0.04 0.04 -0.04 0.08 -0.04 s0.12 0.04 0.16 0.04 c0.12 0 0.36 0.04 0.36 0.04 l-2.92 2.2 c-0.12 0 -0.52 -0.04 -0.6 -0.04 z M323.84000000000003 19.04 l2.88 -2.16 c0.08 0 0.36 0.12 0.4 0.16 l-2.84 2.16 c-0.08 0 -0.44 -0.16 -0.44 -0.16 z M311.92 19.56 l0 -0.48 l2.72 -2.04 l0 0.48 z M324.72 19.52 l0 -0.04 l2.84 -2.08 c0.08 0.08 0.16 0.2 0.2 0.32 l-2.8 2.08 c-0.04 0 -0.12 -0.12 -0.12 -0.12 c0 -0.04 -0.12 -0.12 -0.12 -0.16 z M311.92 20.2 l2.72 -2.04 l0 0.48 l-2.72 2.04 l0 -0.48 z M325.2 20.28 l2.76 -2.08 l0.04 0.08 c0 0.04 0.04 0.24 0.04 0.32 l-2.72 2.04 l-0.04 0.04 l-0.12 -0.36 c0 -0.04 0 -0.04 0.04 -0.04 z M325.44 21.64 l-0.04 -0.4 l2.76 -2.08 s0.04 0.28 0.04 0.44 l-2.72 2.04 l-0.04 0.04 l0 -0.04 z M311.92 21.32 l2.72 -2.04 l0 0.48 l-2.72 2.04 l0 -0.48 z M325.52000000000004 22.28 l2.76 -2.08 l0 0.4 l0 0.08 l-2.72 2.04 c-0.04 -0.16 -0.04 -0.28 -0.04 -0.44 z M311.92 22.88 l0 -0.44 l2.72 -2.04 l0 0.44 z M325.52000000000004 23.84 l0 -0.48 l2.76 -2.04 l0 0.48 z M311.92 24 l0 -0.48 l2.72 -2.08 l0 0.52 z M325.52000000000004 24.48 l2.76 -2.04 l0 0.48 l-2.76 2.04 l0 -0.48 z M311.92 24.64 l2.72 -2.08 l0 0.52 l-2.72 2.04 l0 -0.48 z M325.52000000000004 25.6 l2.76 -2.04 l0 0.44 l-2.76 2.04 l0 -0.44 z M311.92 26.240000000000002 l0 -0.48 l2.72 -2.08 l0 0.48 z M325.52000000000004 26.68 l2.76 -2.04 l0 0.48 l-2.76 2.04 l0 -0.48 z M311.92 27.36 l0 -0.48 l2.72 -2.08 l0 0.48 z M325.52000000000004 27.8 l2.76 -2.04 l0 0.48 l-2.76 2.04 l0 -0.48 z M311.92 27.96 l2.72 -2.04 l0 0.48 l-2.72 2.08 l0 -0.52 z M325.52000000000004 29.4 l0 -0.48 l2.76 -2.04 l0 0.44 c0 0.04 -0.04 0.04 -0.04 0.04 z M311.92 29.6 l0 -0.52 l2.72 -2.04 l0 0.48 z M325.48 30.04 l2.72 -2 l0.04 0 c-0.04 0.16 -0.04 0.48 -0.04 0.48 l-2.76 2.04 c0 -0.08 0.04 -0.36 0.04 -0.4 l0 -0.12 z M311.92 30.68 l0 -0.48 l2.72 -2.04 l0 0.48 z M311.92 31.32 l2.72 -2.04 l0 0.48 l-2.72 2.04 l0 -0.48 z M311.92 32.44 l2.72 -2.04 l0 0.48 l-2.72 2.04 l0 -0.48 z M310.36 36.32 l0 -0.48 l2.76 -2.04 l0 0.48 z M311.44 34.4 l-1.08 0.8 c0 -0.44 0.68 -0.8 1.08 -0.8 z M310.36 36.96 l2.76 -2.04 l0 0.44 l-2.76 2.04 l0 -0.44 z M310.36 38.52 l0 -0.48 l2.76 -2.04 l0 0.48 z M310.36 39.16 l2.72 -2.04 c0.08 0.08 0.08 0.12 0.12 0.24 l0.08 0.12 l-2.8 2.08 c-0.08 0 -0.12 -0.32 -0.12 -0.4 z M324.32 39.88 l-0.04 0 l3.04 -2.24 c0.08 -0.04 0.2 -0.08 0.24 -0.08 c0.08 0 0.48 -0.08 0.56 -0.12 l0.04 0 l-3.08 2.32 c-0.08 0.04 -0.68 0.12 -0.76 0.12 z M326.56 39.28 l2.12 -1.6 c-0.36 0.56 -1.52 1.36 -2.12 1.6 z M323.32 40 l-0.64 0 l2.96 -2.2 c0.12 -0.08 0.28 -0.08 0.4 -0.08 l0.28 0 l-2.96 2.24 z M310.8 39.96 l2.92 -2.2 l0.64 0 l-2.96 2.24 l-0.44 0 c-0.04 0 -0.12 -0.04 -0.16 -0.04 z M312.24 40 l2.96 -2.24 l0.68 0 l-3 2.24 l-0.64 0 z M314.36 40 l-0.64 0 l3 -2.24 l0.64 0 z M315.24 40 l2.96 -2.24 l0.64 0 l-2.96 2.24 l-0.64 0 z M316.72 40 l2.96 -2.24 l0.64 0 l-2.96 2.24 l-0.64 0 z M318.84000000000003 40 l-0.64 0 l3 -2.24 l0.64 0 z M320.36 40 l-0.68 0 l3 -2.24 l0.64 0 z M321.2 40 l2.96 -2.24 l0.64 0 l-2.96 2.24 l-0.64 0 z" fill="#111111"></path></g><g id="SvgjsG1201" featurekey="nameFeature-1" transform="matrix(1.2956247919635917,0,0,1.2956247919635917,158.40875072497383,56.043753315968175)" fill="#111111"><path d="M6.92 31.32 l0 -15.52 l-0.92 -0.24 c-0.36 -0.12 -0.6 -0.44 -0.6 -0.8 l0 -4 c0 -0.28 0.28 -0.76 0.6 -0.76 l11.76 0 c6.04 0 8.2 4.24 8.2 9.52 l0 7.8 l-0.12 1.76 c-0.32 4.6 -2.96 8 -7.72 8 l-12.08 0 c-0.36 0 -0.64 -0.44 -0.64 -0.76 l0 -4 c-0.44 0 -0.64 0.48 -0.64 0.84 l-1.2 0.88 l0 -0.48 l1.88 -1.4 c0.04 -0.04 0.08 -0.2 0.12 -0.24 c0.16 -0.24 0.4 -0.28 0.68 -0.36 c0.04 -0.04 0.04 -0.04 0.08 -0.04 z M3.48 12.920000000000002 l-1.48 1.12 l0 -0.4 c0 -0.04 0 -0.12 0.04 -0.16 l0.8 -0.56 l0.64 0 z M2 14.64 l2.32 -1.72 l0.44 0 l0 0.16 l-2.76 2.08 l0 -0.52 z M2 15.760000000000002 l2.76 -2.04 l0 0.48 l-2.76 2.08 l0 -0.52 z M2 17.36 l0 -0.48 l2.68 -2 c0.04 0 0.04 -0.04 0.08 -0.04 l0 0.48 z M2.04 17.96 l2.84 -2.08 c0.08 0.12 0.16 0.16 0.24 0.28 l-2.84 2.12 s-0.08 -0.04 -0.12 -0.08 s-0.12 -0.16 -0.12 -0.24 z M12.36 15.96 l0.04 0.92 c0.04 -0.04 0.24 -0.2 0.32 -0.24 l0.64 0 l-1 0.76 l0 0.6 l1.84 -1.36 l0.68 0 l-2.52 1.88 l0 12.6 l4.88 0 l2.44 -1.84 l0 0.04 c0 0.04 -0.16 0.52 -0.16 0.56 l-1.64 1.24 c2.16 0 2.68 -2.76 2.68 -4.48 l0 -6.84 c0 -2.64 -0.48 -3.84 -3.32 -3.84 l-4.88 0 z M3.24 18.64 l-0.44 -0.12 l2.92 -2.16 l0.04 0 l0.44 0.12 l-2.88 2.16 l-0.08 0 z M12.72 18.88 l3 -2.24 l0.64 0 l-3 2.24 l-0.64 0 z M14.2 18.88 l2.92 -2.2 c0.04 -0.04 0.04 -0.04 0.08 -0.04 s0.12 0.04 0.16 0.04 c0.12 0 0.36 0.04 0.36 0.04 l-2.92 2.2 c-0.12 0 -0.52 -0.04 -0.6 -0.04 z M15.48 19.04 l2.88 -2.16 c0.08 0 0.36 0.12 0.4 0.16 l-2.84 2.16 c-0.08 0 -0.44 -0.16 -0.44 -0.16 z M3.56 19.56 l0 -0.48 l2.72 -2.04 l0 0.48 z M16.36 19.52 l0 -0.04 l2.84 -2.08 c0.08 0.08 0.16 0.2 0.2 0.32 l-2.8 2.08 c-0.04 0 -0.12 -0.12 -0.12 -0.12 c0 -0.04 -0.12 -0.12 -0.12 -0.16 z M3.56 20.2 l2.72 -2.04 l0 0.48 l-2.72 2.04 l0 -0.48 z M16.84 20.28 l2.76 -2.08 l0.04 0.08 c0 0.04 0.04 0.24 0.04 0.32 l-2.72 2.04 l-0.04 0.04 l-0.12 -0.36 c0 -0.04 0 -0.04 0.04 -0.04 z M17.08 21.64 l-0.04 -0.4 l2.76 -2.08 s0.04 0.28 0.04 0.44 l-2.72 2.04 l-0.04 0.04 l0 -0.04 z M3.56 21.32 l2.72 -2.04 l0 0.48 l-2.72 2.04 l0 -0.48 z M17.16 22.28 l2.76 -2.08 l0 0.4 l0 0.08 l-2.72 2.04 c-0.04 -0.16 -0.04 -0.28 -0.04 -0.44 z M3.56 22.88 l0 -0.44 l2.72 -2.04 l0 0.44 z M17.16 23.84 l0 -0.48 l2.76 -2.04 l0 0.48 z M3.56 24 l0 -0.48 l2.72 -2.08 l0 0.52 z M17.16 24.48 l2.76 -2.04 l0 0.48 l-2.76 2.04 l0 -0.48 z M3.56 24.64 l2.72 -2.08 l0 0.52 l-2.72 2.04 l0 -0.48 z M17.16 25.6 l2.76 -2.04 l0 0.44 l-2.76 2.04 l0 -0.44 z M3.56 26.240000000000002 l0 -0.48 l2.72 -2.08 l0 0.48 z M17.16 26.68 l2.76 -2.04 l0 0.48 l-2.76 2.04 l0 -0.48 z M3.56 27.36 l0 -0.48 l2.72 -2.08 l0 0.48 z M17.16 27.8 l2.76 -2.04 l0 0.48 l-2.76 2.04 l0 -0.48 z M3.56 27.96 l2.72 -2.04 l0 0.48 l-2.72 2.08 l0 -0.52 z M17.16 29.4 l0 -0.48 l2.76 -2.04 l0 0.44 c0 0.04 -0.04 0.04 -0.04 0.04 z M3.56 29.6 l0 -0.52 l2.72 -2.04 l0 0.48 z M17.12 30.04 l2.72 -2 l0.04 0 c-0.04 0.16 -0.04 0.48 -0.04 0.48 l-2.76 2.04 c0 -0.08 0.04 -0.36 0.04 -0.4 l0 -0.12 z M3.56 30.68 l0 -0.48 l2.72 -2.04 l0 0.48 z M3.56 31.32 l2.72 -2.04 l0 0.48 l-2.72 2.04 l0 -0.48 z M3.56 32.44 l2.72 -2.04 l0 0.48 l-2.72 2.04 l0 -0.48 z M2 36.32 l0 -0.48 l2.76 -2.04 l0 0.48 z M3.08 34.4 l-1.08 0.8 c0 -0.44 0.68 -0.8 1.08 -0.8 z M2 36.96 l2.76 -2.04 l0 0.44 l-2.76 2.04 l0 -0.44 z M2 38.52 l0 -0.48 l2.76 -2.04 l0 0.48 z M2 39.16 l2.72 -2.04 c0.08 0.08 0.08 0.12 0.12 0.24 l0.08 0.12 l-2.8 2.08 c-0.08 0 -0.12 -0.32 -0.12 -0.4 z M15.96 39.88 l-0.04 0 l3.04 -2.24 c0.08 -0.04 0.2 -0.08 0.24 -0.08 c0.08 0 0.48 -0.08 0.56 -0.12 l0.04 0 l-3.08 2.32 c-0.08 0.04 -0.68 0.12 -0.76 0.12 z M18.2 39.28 l2.12 -1.6 c-0.36 0.56 -1.52 1.36 -2.12 1.6 z M14.96 40 l-0.64 0 l2.96 -2.2 c0.12 -0.08 0.28 -0.08 0.4 -0.08 l0.28 0 l-2.96 2.24 z M2.44 39.96 l2.92 -2.2 l0.64 0 l-2.96 2.24 l-0.44 0 c-0.04 0 -0.12 -0.04 -0.16 -0.04 z M3.88 40 l2.96 -2.24 l0.68 0 l-3 2.24 l-0.64 0 z M6 40 l-0.64 0 l3 -2.24 l0.64 0 z M6.88 40 l2.96 -2.24 l0.64 0 l-2.96 2.24 l-0.64 0 z M8.36 40 l2.96 -2.24 l0.64 0 l-2.96 2.24 l-0.64 0 z M10.48 40 l-0.64 0 l3 -2.24 l0.64 0 z M12 40 l-0.68 0 l3 -2.24 l0.64 0 z M12.84 40 l2.96 -2.24 l0.64 0 l-2.96 2.24 l-0.64 0 z M40.268 31.28 l0 -15.52 l-0.96 -0.28 c-0.32 -0.12 -0.56 -0.44 -0.56 -0.76 l0 -3.96 c0 -0.28 0.28 -0.76 0.6 -0.76 l12.12 0 c5 0 6.68 3.36 6.68 7.8 l0 1.64 l-0.08 2.16 c-0.08 1.32 -0.72 2.84 -1.68 3.76 c-0.04 0.04 -0.28 0.2 -0.28 0.24 c0.04 0.04 0.12 0.12 0.16 0.12 c1.2 0.96 1.64 2.76 1.68 4.24 l0.04 1.32 c0.16 0.08 0.8 0.28 0.96 0.32 c0.32 0.12 0.6 0.36 0.6 0.72 l0 4 c0 0.36 -0.32 0.76 -0.68 0.76 l-5.64 0 c-0.36 0 -0.64 -0.48 -0.64 -0.8 l0 -5.16 c0 -1.08 -0.48 -2.4 -1.72 -2.4 l-5.16 0 l0 0.68 l0.52 0 l-0.52 0.4 l0 0.64 l1.36 -1.04 l0.64 0 l-2 1.52 l0 0.36 l0.24 0.08 l0 0 l2.6 -1.96 l0.68 0 l-2.8 2.08 c0.52 0.2 0.88 0.4 0.88 1 l0 3.72 c0 0.36 -0.24 0.88 -0.68 0.88 l-7.24 0 c-0.36 0 -0.64 -0.44 -0.64 -0.76 l0 -3.96 c0 -0.32 0.24 -0.64 0.52 -0.72 z M35.348 14.16 l0 -0.48 l1.04 -0.76 l0.64 0 z M35.348 14.8 l2.52 -1.88 l0.2 0 l0 0.32 l-2.72 2.04 l0 -0.48 z M35.348 15.920000000000002 l2.72 -2.04 l0 0.48 l-2.72 2.04 l0 -0.48 z M35.348 17.52 l0 -0.48 l2.68 -2 c0.08 0.04 0.08 0.32 0.08 0.44 z M35.467999999999996 18.08 l2.84 -2.12 c0.12 0.08 0.2 0.12 0.36 0.2 l-2.88 2.16 c-0.08 0 -0.32 -0.24 -0.32 -0.24 z M45.708 15.96 l0 1.08 c0.08 -0.04 0.48 -0.36 0.56 -0.4 l0.64 0 l-1.2 0.88 l0 0.64 l2.04 -1.52 l0.64 0 l-2.68 2 l0 4.12 l4.32 0 l2.04 -1.52 c0 0.12 0 0.48 -0.08 0.56 l-1.24 0.92 c1.92 0 1.96 -1.44 2 -2.88 l0 -0.6 c0 -0.64 0 -1.32 -0.12 -1.96 c-0.16 -1.32 -1.04 -1.32 -2.2 -1.32 l-0.24 0 l-4.48 0 z M36.788 18.64 l-0.44 -0.12 l2.88 -2.16 l0.04 0 l0.36 0.08 l0 0.12 l-2.76 2.08 c-0.04 0 -0.04 0.04 -0.08 0.04 l0 -0.04 z M46.268 18.88 l3 -2.24 l0.6 0 l-2.96 2.24 l-0.64 0 z M47.748 18.92 l-0.04 0 l2.92 -2.2 c0.12 0 0.48 0.04 0.52 0.08 l-2.88 2.16 c0 0.04 0 0.04 -0.04 0.04 c-0.16 0 -0.36 -0.08 -0.48 -0.08 z M48.788 19.2 l2.84 -2.08 c0.12 0.04 0.24 0.2 0.24 0.28 l-2.8 2.08 c-0.08 -0.08 -0.2 -0.16 -0.28 -0.28 z M36.908 19.72 l0 -0.48 l2.72 -2.04 l0 0.48 z M49.228 20 l2.76 -2.08 l0 0.04 s0.04 0.24 0.04 0.44 l-2.76 2.04 z M36.908 20.84 l0 -0.48 l2.72 -2.08 l0 0.52 z M49.348 21.04 l2.72 -2.04 c0.04 0.08 0.04 0.28 0.04 0.44 l-2.76 2.08 l0 -0.4 l0 -0.08 z M36.908 21.48 l2.72 -2.08 l0 0.52 l-2.72 2.04 l0 -0.48 z M49.348 22.12 l2.76 -2.04 l0 0.2 l0 0.2 c0 0.04 0 0.08 -0.04 0.08 l-2.72 2.08 l0 -0.52 z M36.908 23.04 l0 -0.44 l2.72 -2.08 l0 0.44 z M36.908 24.16 l0 -0.52 l2.72 -2.04 l0 0.48 z M36.908 24.759999999999998 l2.72 -2.04 l0 0.48 l-2.72 2.04 l0 -0.48 z M50.708 22.72 l0 0 z M36.908 25.880000000000003 l2.72 -2.04 l0 0.48 l-2.72 2.04 l0 -0.48 z M36.908 27.48 l0 -0.48 l2.72 -2.04 l0 0.48 z M36.908 28.119999999999997 l2.72 -2.04 l0 0.48 l-2.72 2.04 l0 -0.48 z M36.908 29.240000000000002 l2.72 -2.04 l0 0.48 l-2.72 2.04 l0 -0.48 z M36.908 30.84 l0 -0.48 l2.72 -2.04 l0 0.48 z M47.068 31.64 l3 -2.24 c0.2 0 0.4 0 0.56 0.08 l-2.92 2.16 c-0.04 0.04 0 0.04 -0.04 0.04 c-0.2 0 -0.4 -0.04 -0.6 -0.04 z M36.908 31.96 l0 -0.48 l2.68 -2 c0 -0.04 0.04 -0.04 0.04 -0.04 l0 0.48 z M48.268 31.880000000000003 l2.84 -2.16 c0.04 0 0.28 0.24 0.28 0.28 l-2.84 2.12 c-0.08 -0.08 -0.2 -0.16 -0.28 -0.24 z M48.867999999999995 32.56 c0 -0.04 0.04 -0.04 0.04 -0.04 l2.76 -2.08 l0.12 0.36 c0 0.04 0 0.04 -0.04 0.04 l-2.72 2.04 c-0.08 -0.08 -0.16 -0.24 -0.16 -0.32 z M36.908 32.6 l2.72 -2.04 l0 0.48 l-2.72 2.04 l0 -0.48 z M49.147999999999996 33.44 l2.72 -2.04 s0.04 0.04 0.04 0.08 l0 0.36 l-2.76 2.08 l0 -0.04 l0 -0.44 z M49.188 35 l0 -0.48 l2.72 -2.04 l0 0.48 z M36.908 34.2 l0 -0.48 l1.24 -0.96 c-0.04 0.2 -0.04 0.36 -0.08 0.52 z M49.188 35.64 l2.72 -2.04 l0 0.48 l-2.72 2.04 l0 -0.48 z M35.348 36.48 l0 -0.48 l2.72 -2.08 l0 0.52 z M35.868 34.56 l0.92 -0.28 l-1.44 1.08 c0 -0.4 0.2 -0.68 0.52 -0.8 z M49.188 37.24 l0 -0.48 l2.72 -2.04 l0 0.48 z M35.348 37.12 l2.72 -2.08 l0 0.48 l-2.72 2.04 l0 -0.44 z M49.188 38.36 l0 -0.48 l2.72 -2.04 l0 0.48 z M35.348 38.68 l0 -0.48 l2.68 -2.04 l0.04 0 l0 0.48 z M49.188 39 l2.72 -2.04 c0.04 0.08 0.12 0.32 0.12 0.4 l-2.8 2.08 c-0.04 -0.12 -0.04 -0.24 -0.04 -0.36 l0 -0.08 z M35.348 39.32 c0 -0.04 0 -0.04 0.04 -0.04 l2.72 -2.04 c0.08 0.12 0.16 0.2 0.24 0.32 l-2.8 2.08 l-0.04 0.04 c-0.04 0 -0.16 -0.32 -0.16 -0.36 z M49.507999999999996 39.88 l2.88 -2.16 l0.12 0 c0.12 0.04 0.28 0.04 0.4 0.04 l-2.96 2.24 c-0.16 0 -0.28 -0.04 -0.44 -0.12 z M35.948 39.96 l2.96 -2.2 l0.64 0 l-2.96 2.24 l-0.64 0 l0 -0.04 z M38.068 40 l-0.64 0 l2.96 -2.24 l0.64 0 z M38.908 40 l2.96 -2.24 l0.68 0 l-3 2.24 l-0.64 0 z M40.388 40 l3 -2.24 l0.48 0 l0 0.12 l-2.8 2.12 l-0.68 0 z M51.428 40 l-0.64 0 l2.96 -2.24 l0.64 0 z M52.908 40 l-0.64 0 l2.96 -2.24 l0.68 0 z M53.748 40 l2.4 -1.8 l0 0.48 l-1.72 1.32 l-0.68 0 z M42.548 40 l-0.64 0 l1.96 -1.52 l0 0.52 z M55.268 40 l0.88 -0.68 c0 0.36 -0.44 0.68 -0.76 0.68 l-0.12 0 z M73.816 30.92 l-0.16 0.48 l0.52 -0.16 l0.04 -0.08 l5.48 -20.52 c0.04 -0.24 0.24 -0.64 0.52 -0.64 l5.76 0 c0.28 0 0.52 0.28 0.56 0.52 l5.52 20.68 c0.04 0.04 0.04 0.08 0.04 0.08 l1.12 0.36 c0.28 0.08 0.52 0.44 0.52 0.72 l0 4 c0 0.32 -0.32 0.72 -0.68 0.72 l-7.36 0 c-0.4 0 -0.64 -0.44 -0.68 -0.76 l0 -0.72 c0 -1.04 0 -2.08 0.04 -3.12 c0 -0.32 0.12 -0.68 0.44 -0.8 l0.72 -0.24 l0.04 -0.04 l-0.72 -2.68 s-2.84 0 -4.08 -0.04 l-0.72 0 l-0.44 0 l-0.16 0.8 l0 0.04 l0.16 -0.16 l0.68 0 l-0.92 0.68 c-0.04 0.04 -0.04 0.04 -0.04 0.08 l-0.12 0.6 l0 0.08 l1.88 -1.4 l0.64 0 l-2.6 1.96 l0 0 l0.52 0.2 l2.92 -2.16 l0.6 0 l-2.96 2.24 l-0.36 0 c0.24 0.12 0.44 0.4 0.44 0.72 l0 3.96 c0 0.32 -0.28 0.76 -0.64 0.76 l-7.36 0 c-0.36 0 -0.64 -0.44 -0.64 -0.76 l0 -3.96 c-0.24 0 -0.48 0.24 -0.56 0.44 c-0.04 0.04 -0.04 0.12 -0.08 0.16 l-0.76 0.56 l0.16 -0.6 s0.04 0 0.04 -0.04 l2.64 -1.96 l0.04 0 z M77.61600000000001 12.920000000000002 l-1.44 1.08 c0 -0.08 0.12 -0.44 0.12 -0.52 l0.04 -0.08 l0.64 -0.48 l0.64 0 z M75.936 14.8 l2.56 -1.88 l0.12 0 l-0.12 0.48 l-2.72 2 z M75.61600000000001 16.2 l2.64 -2 l-0.16 0.6 l-2.68 2 l0 -0.04 s0.12 -0.36 0.2 -0.56 z M77.736 16.2 l-2.68 2 l0.16 -0.56 l0 -0.04 l2.64 -1.96 l0.04 -0.04 z M84.33600000000001 23.2 l-1.32 -6.32 l-0.4 1.84 l0 0.08 c0 0.08 0.08 0.28 0.08 0.36 c-0.08 0.04 -0.24 0.08 -0.24 0.2 l-0.16 0.72 l0.52 -0.4 l0.08 0.4 c0 0.04 0 0.04 -0.04 0.04 l-0.72 0.56 l-0.16 0.76 l1.04 -0.8 l0.08 0.44 l-1.24 0.92 c-0.04 0 -0.04 0.04 -0.04 0.04 l-0.16 0.72 l1.56 -1.12 c0 0.08 0.08 0.32 0.08 0.4 l-0.04 0.04 l-1.56 1.16 l0.12 0 l0.72 0 l0.88 -0.64 l0.08 0.4 c-0.04 0.04 -0.24 0.2 -0.28 0.2 l0.2 0 l0.92 0 z M77.33600000000001 17.6 l-2.64 2 l0 -0.04 s0.12 -0.56 0.16 -0.56 l2.6 -1.96 l0.04 -0.04 c0 0.08 -0.12 0.48 -0.16 0.6 z M76.976 19 l-2.68 2 s0.12 -0.4 0.16 -0.6 l2.68 -2 c0 0.04 -0.12 0.56 -0.16 0.6 z M73.936 22.4 l0.16 -0.6 l2.68 -2.04 l-0.16 0.6 l0 0.04 l-2.64 1.96 z M73.57600000000001 23.72 l0.12 -0.52 l2.68 -2 l-0.12 0.52 z M73.376 24.52 l2.68 -2 l-0.16 0.6 l-2.68 2 l0.12 -0.56 c0 -0.04 0.04 -0.04 0.04 -0.04 z M73.016 25.92 l2.64 -2 s-0.08 0.4 -0.16 0.6 l-2.68 2 c0 -0.04 0.16 -0.56 0.2 -0.6 z M72.61600000000001 27.32 l2.68 -2 l0 0.04 s-0.12 0.36 -0.16 0.56 l-2.68 2 c0 -0.08 0.12 -0.48 0.16 -0.6 z M72.256 28.72 l2.68 -2 l-0.16 0.6 l-2.72 2 z M71.85600000000001 30.119999999999997 l2.68 -2 l0 0.04 s-0.08 0.36 -0.16 0.56 l-2.68 2 z M81.736 31.64 l2.96 -2.24 l0.2 0 l0.04 0.28 l0 0.04 l-2.76 2.08 c0 -0.04 -0.04 -0.12 -0.04 -0.16 l-0.4 0 z M71.49600000000001 31.48 l2.68 -2 l-0.16 0.64 l-2.68 2 l0 -0.04 l0.16 -0.56 l0 -0.04 z M82.33600000000001 32.28 l2.72 -2 c0.08 0.08 0.16 0.32 0.16 0.32 l0 0.04 l-2.8 2.08 c-0.04 -0.08 -0.08 -0.32 -0.08 -0.44 z M82.61600000000001 33.2 l2.72 -2.04 l0.12 0.36 c0 0.04 0 0.04 -0.04 0.08 l-2.76 2.04 l-0.08 -0.36 c0 -0.04 0 -0.04 0.04 -0.08 z M82.816 34.2 c0 -0.04 0.04 -0.04 0.04 -0.04 l1.56 -1.16 c0 0.16 -0.04 0.32 -0.04 0.48 l-2.72 2.04 l0 -0.08 c0 -0.12 0 -0.4 0.12 -0.48 c0.08 -0.08 0.44 -0.36 0.6 -0.44 l0.48 -0.2 z M68.936 35.64 l2.76 -2.04 l0 0.48 l-2.76 2.08 l0 -0.52 z M81.61600000000001 36.16 l0.04 0 l2.72 -2.04 l0 0.48 l-2.76 2.08 l0 -0.52 z M69.536 34.6 l-0.48 0.32 c0.08 -0.12 0.28 -0.32 0.48 -0.32 z M68.936 36.76 l2.76 -2.04 l0 0.48 l-2.76 2.08 l0 -0.52 z M81.61600000000001 37.28 l0.04 0 l2.72 -2.04 l0 0.2 l0 0.28 l-2.76 2.08 l0 -0.2 l0 -0.16 l0 -0.16 z M68.936 38.36 l0 -0.48 l2.68 -2 c0.04 0 0.04 -0.04 0.08 -0.04 l0 0.48 z M81.61600000000001 38.44 l0 -0.04 l2.76 -2.04 l0 0.44 c0 0.04 -0.04 0.04 -0.08 0.08 l-2.68 2.04 l0 -0.08 l0 -0.4 z M68.936 39 l2.76 -2.04 c0 0.12 0.08 0.28 0.08 0.4 l-2.8 2.08 c-0.04 -0.08 -0.04 -0.24 -0.04 -0.32 l0 -0.12 z M81.69600000000001 39.48 l2.76 -2.08 l0.04 0 c0.08 0.12 0.16 0.16 0.28 0.28 l-2.88 2.12 c-0.04 0 -0.2 -0.24 -0.2 -0.32 z M69.296 39.88 l2.84 -2.16 c0.2 0 0.4 0.04 0.56 0.04 l-2.96 2.24 l-0.08 0 c-0.16 0 -0.28 -0.04 -0.36 -0.12 z M70.57600000000001 40 l2.96 -2.24 l0.68 0 l-3 2.24 l-0.64 0 z M72.05600000000001 40 l3 -2.24 l0.64 0 l-3 2.24 l-0.64 0 z M74.21600000000001 40 l-0.64 0 l2.96 -2.24 l0.64 0 z M82.49600000000001 40 l3 -2.24 l0.64 0 l-3 2.24 l-0.64 0 z M84.656 40 l-0.64 0 l2.96 -2.24 l0.64 0 z M86.13600000000001 40 l-0.64 0 l2.96 -2.24 l0.64 0 z M86.976 40 l2.96 -2.24 l0.4 0 l0 0.16 l-2.76 2.08 l-0.6 0 z M75.69600000000001 40 l-0.64 0 l2.56 -1.92 l0 0.48 z M89.05600000000001 40 l-0.64 0 l1.92 -1.44 l0 0.48 z M76.976 40 l-0.44 0 l1.08 -0.8 c0 0.32 -0.28 0.8 -0.64 0.8 z M112.48400000000001 10.280000000000001 l1.6 -0.16 l2.08 -0.12 l1.72 0 l1.44 0.08 l1.24 0.16 c4.12 0.48 4.96 4.44 4.96 7.88 c0 0.4 0 1.36 -0.6 1.36 l-4.12 0 c-0.52 0 -0.56 -0.72 -0.6 -1.08 c-0.04 -0.16 -0.08 -0.92 -0.12 -1.12 c-0.12 -0.8 -0.4 -1.08 -1.24 -1.28 c-0.52 -0.12 -1.04 -0.12 -1.56 -0.12 l-1 0 l-0.96 0 c-0.76 0 -3.08 0.24 -3.08 1.08 c0.16 -0.08 0.64 -0.24 0.8 -0.24 l0.04 0 l-1.04 0.8 c-0.04 0.04 -0.12 0.64 -0.12 0.68 l2.2 -1.64 l0.52 0 l0.12 0 l-2.92 2.16 l-0.04 0.68 l0 5.88 c0.16 -0.36 0.4 -0.52 0.8 -0.52 l-0.8 0.6 l0 0.64 l1.64 -1.24 l0.64 0 l-2.28 1.72 l0 0.2 s0 0.28 0.04 0.4 l2.6 -1.96 l0 0.48 l-2.6 1.96 l0 0.08 c0 0.16 0 0.36 0.04 0.48 l2.56 -1.88 l0 0.44 l-2.52 1.92 l0 0.08 l0.04 0.48 c0.04 0 0.04 -0.04 0.04 -0.04 l2.48 -1.84 c0.04 0.12 0.08 0.24 0.16 0.36 l-2.6 1.96 s0.04 0.08 0.04 0.16 c0.04 0.08 0.08 0.2 0.16 0.32 l2.8 -2.12 l0.64 0 l-2.96 2.2 l-0.32 0 l-0.12 0 c0 0.08 0.12 0.24 0.16 0.28 c0.44 0.6 1.24 0.68 1.88 0.72 c0.2 0.04 1 0.04 1.12 0.08 l0.08 0 c0.32 0 1.12 -0.04 1.32 -0.04 l0 -0.16 l2.68 -2.04 l0 0.08 c0 0.08 0.04 0.4 -0.04 0.44 l-2.24 1.72 c0.12 -0.04 0.84 -0.04 0.88 -0.08 l1.24 -0.92 c0 0.16 -0.04 0.36 -0.12 0.56 c-0.04 0.04 -0.2 0.16 -0.24 0.2 c1.08 0 1.16 -2.28 1.2 -3.16 l0 -0.56 l-4.48 0 c-0.36 0 -0.6 -0.56 -0.6 -0.84 l0 -3.72 c0 -0.36 0.28 -0.84 0.72 -0.84 l1.48 0 l2.48 -1.88 c0.16 0.12 0.28 0.16 0.44 0.16 l-2.28 1.72 l0.84 0 l2.28 -1.72 l0.64 0 l-2.28 1.72 l0.84 0 l1.84 -1.4 l0.04 0 l0 0.44 l-1.28 0.96 l0.8 0 c0.12 -0.08 0.4 -0.28 0.44 -0.32 c0 0.12 -0.04 0.24 -0.04 0.32 l2.76 0 c0.36 0 0.72 0.4 0.72 0.76 l0 5.64 l-0.12 2.08 c-0.28 5.88 -4.24 6.76 -9.28 6.76 c-3.92 0 -7.68 -0.4 -9 -4.84 c-0.36 -1.08 -0.56 -2.28 -0.6 -3.44 l-0.08 -1.72 l0 -7.24 l0.04 -1.48 l0.16 -1.4 l0.2 -1.08 c0.52 -2.92 2.6 -5.32 5.6 -5.64 z M104.56400000000001 16.08 l2.52 -1.88 c-0.12 0.2 -0.24 0.44 -0.32 0.68 l-2.6 1.96 c0.04 -0.12 0.32 -0.72 0.4 -0.76 z M103.84400000000001 17.72 l2.56 -1.96 l0.04 0 l-0.16 0.56 l-2.64 2 l0.16 -0.6 l0.04 0 z M113.284 18.76 l-0.6 0 l2.92 -2.2 l0.64 0 z M114.16400000000002 18.76 l-0.04 0 l2.96 -2.2 c0.2 0 0.4 0 0.56 0.04 l-2.92 2.16 l-0.08 0 l-0.12 0 l-0.36 0 z M115.44400000000002 18.88 l2.84 -2.16 l0.04 0 s0.12 0 0.12 0.04 c0.04 0 0.32 0.04 0.32 0.12 l-2.84 2.12 c-0.04 0 -0.12 0 -0.12 -0.04 c-0.04 0 -0.28 -0.04 -0.32 -0.08 l-0.04 0 z M103.364 19.6 l0 -0.04 l0.08 -0.44 l0.08 -0.08 l2.56 -1.92 l0.04 -0.04 l-0.08 0.48 c0 0.04 0 0.08 -0.04 0.08 z M116.40400000000001 19.28 l0 -0.04 l2.76 -2.04 l0.04 0 c0.04 0.04 0.2 0.32 0.16 0.32 l-2.76 2.08 c-0.04 -0.08 -0.04 -0.12 -0.08 -0.16 s-0.16 -0.12 -0.12 -0.16 z M116.724 20.12 l2.76 -2.04 c0 0.04 0.04 0.36 0.04 0.44 l-0.04 0 l-2.68 2.04 c-0.04 -0.12 -0.08 -0.36 -0.08 -0.44 z M103.284 20.32 l2.68 -2 c0 0.12 0 0.48 -0.04 0.52 l-2.64 1.96 l-0.04 0.04 c0 -0.08 0 -0.48 0.04 -0.52 z M116.84400000000001 21.16 l2.68 -2.04 l0.04 0 l0.08 0.4 l-2.76 2.08 l0 -0.04 s-0.04 -0.24 -0.04 -0.4 z M103.20400000000001 21.48 l2.68 -2 c0 0.08 -0.04 0.44 -0.04 0.44 l-2.68 2.04 l0 -0.12 c0 -0.08 -0.04 -0.28 0.04 -0.36 z M105.84400000000001 21.04 l-2.72 2.04 l0 -0.44 c0 -0.04 0 -0.04 0.04 -0.08 l2.68 -2 l0 0.48 z M103.12400000000001 24.16 l0 -0.48 l2.72 -2 l0 0.48 z M103.12400000000001 24.8 l2.72 -2.04 l0 0.48 l-2.72 2.04 l0 -0.48 z M103.12400000000001 25.880000000000003 l2.72 -2 l0 0.48 l-2.72 2.04 l0 -0.52 z M103.12400000000001 27.48 l0 -0.48 l2.72 -2 l0 0.44 z M103.12400000000001 28.119999999999997 l2.72 -2.04 l0 0.48 l-2.72 2.04 l0 -0.48 z M103.12400000000001 29.2 l2.72 -2 l0 0.48 l-2.72 2 l0 -0.48 z M114.20400000000001 30.16 l-0.64 0 l2.96 -2.2 l0.64 0 z M115.04400000000001 30.16 l2.96 -2.2 l0.6 0 l-2.92 2.2 l-0.64 0 z M116.84400000000001 30.16 l-0.32 0 l2.96 -2.2 l0.08 0 l0 0.4 l-2.72 2.04 l0 -0.24 z M103.12400000000001 30.32 l2.72 -2.04 l0 0.04 l0 0.28 l0 0.12 l-2.68 2.04 c-0.04 -0.12 -0.04 -0.24 -0.04 -0.36 l0 -0.08 z M103.16400000000002 31.36 l2.72 -2.04 c0.04 0.16 0.04 0.28 0.04 0.48 l-2.72 2.04 l0 -0.08 s0 -0.2 -0.04 -0.4 z M103.284 32.4 l2.72 -2 s0.04 0.24 0.04 0.4 l-2.72 2.04 c-0.04 -0.12 -0.04 -0.28 -0.04 -0.44 z M119.004 31.04 l0 -0.04 c-0.04 0 -0.04 0.04 0 0.04 z M103.40400000000001 33.4 l2.72 -2.04 c0.04 0.16 0.08 0.44 0.08 0.44 l-2.72 2.04 z M103.56400000000001 34.4 l0 -0.04 l2.76 -2.04 l0 0.04 l0.08 0.32 l-2.72 2.08 c-0.04 -0.16 -0.12 -0.36 -0.12 -0.36 z M103.80400000000002 35.28 l2.76 -2.08 c0.08 0.12 0.16 0.36 0.16 0.36 l-2.76 2.08 l-0.04 0 z M104.16400000000002 36.12 l2.72 -2.04 l0.04 -0.04 l0 0.04 l0.16 0.32 l-2.76 2.08 c-0.04 -0.04 -0.12 -0.2 -0.12 -0.24 c-0.04 -0.04 -0.08 -0.12 -0.04 -0.12 z M104.56400000000001 36.92 l2.76 -2.08 c0.04 0.04 0.2 0.24 0.24 0.32 l-2.8 2.08 c-0.04 -0.04 -0.16 -0.24 -0.2 -0.32 z M105.04400000000001 37.64 l2.8 -2.08 l0.28 0.28 l-2.8 2.08 l-0.12 -0.12 z M105.68400000000001 38.28 l2.84 -2.12 c0.08 0.08 0.28 0.24 0.28 0.24 l-2.8 2.12 c-0.04 0 -0.08 -0.04 -0.08 -0.04 c-0.08 -0.08 -0.24 -0.2 -0.24 -0.2 z M106.44400000000002 38.8 l2.84 -2.12 l0.36 0.2 l-2.84 2.16 c-0.16 -0.08 -0.36 -0.2 -0.36 -0.2 l0 -0.04 z M117.004 39.68 l3.08 -2.32 c0.04 0 0.2 -0.04 0.24 -0.04 l0.72 -0.24 c0 0.04 -0.04 0.08 -0.08 0.08 l-2.96 2.24 c-0.04 0.04 -0.92 0.28 -0.96 0.28 l-0.04 0 z M107.32400000000001 39.28 l2.88 -2.16 l0.4 0.12 l0.04 0 c0 0.04 0 0.04 -0.04 0.04 l-2.84 2.12 c-0.16 -0.04 -0.32 -0.08 -0.44 -0.12 z M108.364 39.6 l0 -0.04 l2.88 -2.12 l0.04 -0.04 l0.48 0.12 l-2.88 2.16 c-0.12 0 -0.48 -0.08 -0.52 -0.08 z M115.20400000000001 39.92 l2.96 -2.24 l0.8 -0.08 l-3 2.24 c-0.04 0.04 -0.6 0.08 -0.64 0.08 l-0.12 0 z M109.56400000000001 39.76 l2.92 -2.16 l0.52 0.08 l-2.92 2.2 l-0.52 -0.08 l0 -0.04 z M110.84400000000001 39.92 l2.92 -2.16 c0 -0.04 0 -0.04 0.04 -0.04 c0.16 0 0.36 0.04 0.56 0.04 l-2.92 2.2 c-0.16 0 -0.52 -0.04 -0.6 -0.04 z M113.724 39.96 l2.96 -2.2 l0.44 0 l0.12 0 l-2.92 2.2 l-0.16 0 c0 0 -0.32 0.04 -0.44 0 z M112.88400000000001 40 l-0.64 0 l2.92 -2.2 l0.64 0 z M148.712 10 l1.6 0.12 c4.52 0.36 6.36 3.36 6.56 7.52 l0.08 1.48 l0 8.44 c0 0.88 -0.04 1.84 -0.2 2.68 l-0.2 1.16 c-0.84 4.88 -4.76 5.72 -8.92 5.72 c-6.24 0 -9 -1.84 -9.24 -8.12 l-0.08 -1.6 l0 -8.08 c0 -0.72 0.04 -1.48 0.12 -2.2 l0.2 -1.32 c0.76 -5.72 5.44 -5.8 10.08 -5.8 z M136.792 15.04 l1.76 -1.32 c0.12 -0.08 0.28 -0.16 0.44 -0.16 l-0.28 0.52 l-2.56 1.92 c0.16 -0.36 0.4 -0.64 0.64 -0.96 z M135.712 16.92 l2.64 -1.96 l-0.16 0.6 c-0.04 0 -0.04 0.04 -0.04 0.04 l-2.64 1.96 l0.04 -0.08 c0 -0.08 0.12 -0.44 0.16 -0.56 z M143.912 17.36 l0.92 -0.68 c0.04 -0.04 0.68 -0.12 0.76 -0.12 l0.04 0 l-1.84 1.36 c0 0.04 -0.04 0.04 -0.04 0.08 l-0.04 0.64 l2.76 -2.08 l0.64 0 l-2.92 2.2 l-0.48 0 l-0.04 0.92 l0 7.48 c0 0.12 0 1 0.04 1.24 c0.12 2.6 0.92 2.76 3.2 2.84 c0.16 0 2 0 2.08 -0.08 l1.76 -1.32 c0.08 -0.04 0.04 0 0.04 0 c0 0.04 -0.08 0.52 -0.16 0.56 l-0.88 0.68 c1.6 0 1.88 -2.6 1.88 -3.84 l0 -8 l-0.08 -1.16 c-0.16 -1.92 -1.32 -2.2 -3.08 -2.2 l-0.88 0 l-0.84 0 c-0.96 0 -2.28 0.12 -2.72 1.12 c-0.08 0.12 -0.12 0.24 -0.12 0.36 z M135.352 18.32 l2.64 -1.96 l-0.08 0.52 l-2.64 1.96 l-0.04 0.04 c0 -0.08 0.08 -0.44 0.12 -0.56 z M145.032 18.76 l2.88 -2.2 c0.24 0 0.48 0 0.64 0.04 l-2.92 2.16 l-0.6 0 z M146.832 19 l-0.48 -0.16 l2.84 -2.12 c0.04 -0.04 0.04 -0.04 0.08 -0.04 c0.12 0 0.32 0.08 0.4 0.16 z M147.352 19.2 l2.84 -2.12 s0.08 0.04 0.08 0.08 c0.04 0.04 0.12 0.12 0.16 0.24 l-2.76 2.04 c-0.12 -0.08 -0.2 -0.16 -0.32 -0.24 z M143.87199999999999 17.4 c0.04 0 0.04 -0.04 0 -0.04 l0 0.04 z M135.072 20.12 l0.04 -0.52 l2.68 -2.04 c0 0.16 0 0.36 -0.04 0.52 z M147.912 19.88 l2.76 -2.04 l0 -0.04 c0.04 0.04 0.08 0.16 0.08 0.2 c0.04 0.04 0.08 0.2 0.04 0.2 l-2.72 2.04 c-0.04 -0.12 -0.16 -0.36 -0.16 -0.36 z M134.992 21.16 c0 -0.16 0.04 -0.4 0.04 -0.4 l2.68 -2 l0 0.08 c0 0.12 0 0.2 -0.04 0.4 l-2.68 2 l0 -0.08 z M148.192 20.8 l2.68 -2.04 c0.04 0.08 0.04 0.36 0.04 0.44 l-2.72 2.04 l0 -0.44 z M148.272 21.84 l2.68 -2 l0 -0.04 c0.04 0.12 0.04 0.24 0.04 0.36 l0 0.12 l-2.72 2 c-0.04 -0.12 0 -0.28 0 -0.4 l0 -0.04 z M134.952 22.16 c0 -0.08 -0.04 -0.28 0.04 -0.32 l2.68 -2 l0 0.48 l-2.72 2.04 l0 -0.2 z M148.272 23.4 l0 -0.48 l2.68 -2 l0.04 0 l0 0.44 z M134.952 23.44 l0 -0.48 l2.68 -1.96 s0 -0.04 0.04 -0.04 l0 0.48 z M148.272 24.04 l2.72 -2.04 l0 0.44 l-2.72 2.04 l0 -0.44 z M134.952 24.560000000000002 l0 -0.48 l2.72 -2.04 l0 0.48 z M148.272 25.560000000000002 l0 -0.48 l2.72 -2 l0 0.48 z M134.952 25.16 l2.72 -2 l0 0.48 l-2.72 2 l0 -0.48 z M148.272 26.68 l0 -0.48 l2.72 -2.04 l0 0.48 z M134.952 26.28 l2.72 -2.04 l0 0.48 l-2.72 2.04 l0 -0.48 z M148.272 27.28 l2.72 -2 l0 0.48 l-2.72 2.04 l0 -0.52 z M134.952 27.880000000000003 l0 -0.48 l2.72 -2.04 l0 0.48 z M148.272 28.880000000000003 l0 -0.48 l2.72 -2.04 l0 0.48 z M134.952 28.48 l2.72 -2 l0 0.48 l-2.72 2 l0 -0.48 z M148.272 29.96 l0 -0.44 l2.72 -2.04 l0 0.44 c0 0.04 -0.04 0.04 -0.04 0.08 l-2.64 1.96 l-0.04 0 z M134.952 29.6 l2.72 -2.04 l0 0.48 l-2.72 2.04 l0 -0.48 z M148.272 30.6 l2.68 -2 c0 0.24 -0.04 0.52 -0.04 0.52 l-2.68 2 l0 -0.04 c0 -0.12 -0.04 -0.4 0.04 -0.48 z M134.952 30.68 l2.72 -2 l0 -0.04 c0.04 0.16 0.04 0.32 0.04 0.48 l-2.72 2.04 c0 -0.16 -0.04 -0.24 -0.04 -0.4 l0 -0.08 z M135.032 31.759999999999998 l2.72 -2.04 s0 0.32 0.04 0.44 l-2.76 2.04 l0 -0.44 z M135.112 32.76 l2.68 -2 l0.04 0 c0 0.08 0.04 0.36 0.04 0.44 l-2.68 2 c-0.04 -0.04 -0.08 -0.32 -0.08 -0.44 z M135.232 33.76 l2.68 -2 l0.08 0 l0.04 0.36 l0 0.04 l-2.72 2.04 l-0.08 -0.36 l0 -0.08 z M135.432 34.72 l2.72 -2.04 l0.12 0.4 l-2.76 2.04 c-0.04 -0.12 -0.08 -0.4 -0.08 -0.4 z M135.672 35.64 l2.76 -2.08 c0.04 0.08 0.12 0.28 0.12 0.4 l-2.76 2.04 s0 -0.08 -0.04 -0.12 c0 -0.04 -0.08 -0.24 -0.08 -0.24 z M136.032 36.44 l2.76 -2.04 l0.2 0.36 l-2.8 2.08 c-0.04 -0.12 -0.16 -0.28 -0.16 -0.4 z M136.672 37.56 l-0.24 -0.28 l2.8 -2.12 c0.04 0.04 0.2 0.24 0.2 0.36 l-2.72 2.04 l-0.04 0 z M137.272 38.24 l-0.28 -0.28 l2.76 -2.08 c0.04 -0.04 0.08 -0.04 0.08 -0.04 l0.24 0.28 z M137.672 38.56 l2.8 -2.12 l0.04 0 l0.32 0.2 l-2.84 2.12 s-0.12 -0.08 -0.2 -0.12 z M138.472 39.04 l2.84 -2.12 l0.04 0 l0.4 0.16 l-2.84 2.12 l-0.04 0.04 c-0.04 0 -0.36 -0.16 -0.4 -0.2 z M147.832 39.68 l3.04 -2.24 c0.32 -0.08 0.68 -0.2 1 -0.28 l-3.08 2.32 c-0.08 0.04 -0.84 0.2 -0.92 0.2 l-0.04 0 z M139.472 39.44 l-0.04 0 l2.84 -2.12 c0.04 -0.04 0.08 -0.04 0.08 -0.04 l0.44 0.12 l-2.88 2.16 c-0.12 0 -0.4 -0.08 -0.44 -0.12 z M140.992 39.8 l-0.44 -0.08 l2.88 -2.16 c0.12 0 0.4 0.04 0.56 0.04 l-2.88 2.16 c-0.04 0.04 -0.04 0.04 -0.12 0.04 z M146.792 39.88 l-0.72 0.04 l2.96 -2.2 s0.04 -0.04 0.08 -0.04 l0.68 -0.08 z M141.792 39.88 l2.92 -2.2 c0.08 0 0.48 0.04 0.56 0.04 l-2.92 2.2 c-0.2 0 -0.56 -0.04 -0.56 -0.04 z M145.152 40 l-0.56 0 l2.92 -2.2 c0.04 -0.04 0.4 -0.04 0.48 -0.04 l0.12 0 z M143.152 39.96 l2.88 -2.16 l0.04 0 c0 -0.04 0.08 -0.04 0.16 -0.04 c0.16 0 0.28 0 0.44 0.04 l-2.92 2.2 l-0.16 0 c-0.16 0 -0.28 0 -0.44 -0.04 z M171.26 31.28 l0 -15.52 l-0.96 -0.28 c-0.32 -0.12 -0.56 -0.44 -0.56 -0.76 l0 -3.96 c0 -0.28 0.28 -0.76 0.6 -0.76 l8.32 0 c0.28 0 0.48 0.32 0.56 0.52 l2.36 5.72 l2.56 -1.92 l0 0.48 l-2.36 1.8 c0.04 0.2 0.08 0.36 0.16 0.48 l2.24 -1.64 c0.04 0.12 0.04 0.28 0.12 0.4 l-2.2 1.64 l0.2 0.48 l2.4 -1.8 s0.28 0.08 0.48 0.12 l-2.72 2.04 l0.56 1.32 l2.76 -2.04 l0 0.36 l0 0.12 l-2.56 1.92 c0 0.12 0.12 0.4 0.16 0.48 l2.4 -1.76 l0 0.36 l0 0.08 l-2.24 1.68 l0 0.04 l0.2 0.48 l2.08 -1.56 l0 0.48 l-1.92 1.44 c0 0.08 0.12 0.36 0.24 0.44 l1.68 -1.28 c0 0.08 0 0.4 0.04 0.48 l-1.64 1.2 l0.2 0.48 l0.04 0 l1.4 -1.04 l0 0.44 l-1.24 0.92 c0 0.16 0.12 0.44 0.2 0.52 l1.04 -0.8 l0 0.48 l-0.88 0.68 c0 0.08 0.08 0.36 0.16 0.48 l0.76 -0.52 l0 0.32 l0 0.12 l-0.6 0.44 c0.04 0.12 0.16 0.4 0.2 0.48 l0.4 -0.28 c0.04 0.12 0.04 0.2 0.04 0.32 c0 0.04 0 0.12 -0.04 0.16 c0 0 -0.2 0.16 -0.24 0.2 l0.2 0.48 l0.08 -0.08 l0 0.28 l0 0.08 l0.68 1.64 l-0.24 -12.52 c0 -0.08 0 -0.08 -0.04 -0.08 c-0.68 -0.2 -1.52 -0.24 -1.52 -1.12 l0 -3.84 c0 -0.32 0.28 -0.8 0.64 -0.8 l7.28 0 c0.32 0 0.6 0.44 0.6 0.72 l0 4 c0 0.36 -0.24 0.64 -0.56 0.76 l-1 0.28 l0 20.52 c0 0.36 -0.28 0.8 -0.64 0.8 l-6.68 0 c-0.28 0 -0.52 -0.32 -0.64 -0.56 l-7.36 -17.84 c0 0.44 0.04 2.12 0.12 2.52 c0.04 0.08 0.12 0.28 0.12 0.28 l0 0.04 c-0.04 0 -0.12 0.08 -0.16 0.2 l0 0.56 l0.36 -0.28 c0.04 0.12 0.16 0.36 0.16 0.36 l-0.52 0.4 l0 0.08 l0 0.52 l0.04 0 c0.08 -0.08 0.52 -0.4 0.68 -0.48 c0.04 0.08 0.12 0.24 0.12 0.36 l-0.8 0.6 l0 0.12 l0 0.52 l1.04 -0.76 c0 0.08 0.08 0.28 0.12 0.36 l-1.16 0.88 l0 0.12 c0 0.2 0 0.32 0.04 0.48 l1.32 -1 c0.04 0.08 0.16 0.32 0.16 0.4 l-1.48 1.08 l0 0.16 l0 0.48 l1.64 -1.24 c0.08 0.04 0.16 0.28 0.16 0.36 l-1.8 1.36 l0 0.2 s0 0.28 0.04 0.4 l2 -1.48 c0.04 0.08 0.12 0.28 0.12 0.36 l-2.12 1.6 l0 0.64 l2.36 -1.76 l0.12 0.32 c0 0.04 -0.04 0.04 -0.04 0.08 l-2.4 1.8 c-0.04 0 -0.04 0 -0.04 0.04 c0 0.12 0 0.52 0.04 0.6 l2.64 -2 c0.04 0.04 0.12 0.28 0.12 0.4 l-2.76 2.08 l0 0.16 l0 0.6 l0 0.08 l0.8 0.28 l2.52 -1.88 c0.08 0.12 0.2 0.36 0.2 0.36 l-2.28 1.68 c0.12 0.12 0.2 0.24 0.28 0.4 l2.16 -1.56 c0.08 0.08 0.16 0.32 0.16 0.32 l-2.24 1.72 l0 0.6 l2.4 -1.8 c0.08 0.04 0.16 0.24 0.2 0.32 l-2.6 2 l0 2.56 c0 0.36 -0.32 0.8 -0.68 0.8 l-7.24 0 c-0.36 0 -0.64 -0.44 -0.64 -0.76 l0 -4.04 c-0.24 0.08 -0.48 0.24 -0.6 0.48 l-1.24 0.96 l0 -0.52 l2.72 -2.04 l0 0.36 z M167.34 12.920000000000002 l-1 0.76 c0.04 -0.32 0.28 -0.76 0.64 -0.76 l0.36 0 z M166.34 14.32 l1.84 -1.4 l0.68 0 l-2.52 1.88 l0 -0.48 z M182.22 12.920000000000002 l-0.76 0.56 c0 -0.28 0.44 -0.56 0.76 -0.56 z M181.42000000000002 14.64 l0 -0.48 l1.64 -1.24 l0.64 0 z M181.42000000000002 15.280000000000001 l2.72 -2.08 l0 0.48 l-2.72 2.08 l0 -0.48 z M166.34 15.920000000000002 l0 -0.48 l2.72 -2.08 l0 0.52 z M166.34 16.56 l2.72 -2.08 l0 0.52 l-2.72 2.04 l0 -0.48 z M166.34 17.64 l2.76 -2.04 c0.04 0 0.2 0.32 0.2 0.36 l-2.84 2.08 c-0.04 0.04 -0.12 -0.32 -0.12 -0.36 l0 -0.04 z M167.3 18.52 l-0.44 -0.12 l2.88 -2.16 c0.24 0 0.48 0.08 0.48 0.08 l0.04 0.04 l-2.88 2.12 c-0.04 0.04 -0.08 0.04 -0.08 0.04 z M182.86 18.64 l2.88 -2.16 l0 0.36 l0 0.12 l-2.72 2.08 l-0.04 -0.08 l0 -0.28 s-0.08 0 -0.12 -0.04 z M167.9 18.72 l2.72 -2.04 l0 0.48 l-2.72 2.08 l0 -0.52 z M167.9 20.36 l0 -0.52 l2.72 -2.04 l0 0.48 z M167.9 21.48 l0 -0.52 l2.72 -2.04 l0 0.48 z M167.9 22.08 l2.72 -2.04 l0 0.44 l-2.72 2.04 l0 -0.44 z M167.9 23.16 l2.72 -2.04 l0 0.48 l-2.72 2.04 l0 -0.48 z M167.9 24.759999999999998 l0 -0.48 l2.72 -2.04 l0 0.48 z M167.9 25.4 l2.72 -2.04 l0 0.48 l-2.72 2.04 l0 -0.48 z M167.9 26.52 l2.72 -2.04 l0 0.48 l-2.72 2.04 l0 -0.48 z M167.9 28.119999999999997 l0 -0.48 l2.72 -2.08 l0 0.52 z M167.9 29.240000000000002 l0 -0.48 l2.72 -2.08 l0 0.52 z M167.9 29.880000000000003 l2.72 -2.08 l0 0.52 l-2.72 2.04 l0 -0.48 z M176.9 30.92 l2.8 -2.12 c0.04 0.04 0.12 0.28 0.16 0.4 l-2.8 2.08 c-0.08 -0.12 -0.16 -0.36 -0.16 -0.36 z M167.9 31.48 l0 -0.48 l2.72 -2.08 l0 0.48 z M167.9 32.6 l0 -0.52 l2.72 -2.04 l0 0.48 z M178.3 34.32 l2.8 -2.08 s0.12 0.2 0.16 0.36 l-2.76 2.08 c-0.08 -0.12 -0.2 -0.36 -0.2 -0.36 z M178.82 35.56 l-0.16 -0.4 l2.8 -2.08 c0.08 0.16 0.16 0.36 0.16 0.36 z M166.34 35.480000000000004 l2.72 -2.04 l0 0.48 l-2.72 2.04 l0 -0.48 z M179.14000000000001 36.4 l-0.12 -0.36 l2.8 -2.12 c0.04 0.16 0.16 0.36 0.16 0.36 z M166.34 37.08 l0 -0.48 l2.68 -2 l0.04 -0.04 l0 0.44 z M179.38 36.88 l2.76 -2.08 c0.08 0.12 0.16 0.36 0.16 0.36 l-2.8 2.08 c0 -0.04 -0.12 -0.28 -0.12 -0.36 z M179.74 37.72 l2.8 -2.08 s0.08 0.24 0.08 0.4 l-2.76 2.08 c-0.04 -0.08 -0.12 -0.32 -0.12 -0.4 z M166.34 37.68 l2.72 -2.04 l0 0.48 l-2.72 2.08 l0 -0.52 z M180.1 38.56 l2.76 -2.04 c0.08 0.12 0.16 0.36 0.16 0.36 l-2.8 2.08 c-0.04 -0.08 -0.12 -0.32 -0.12 -0.4 z M166.34 39.28 l0 -0.48 l2.68 -2 c0.08 0.12 0.12 0.28 0.12 0.4 c-0.04 0 -0.04 0.04 -0.04 0.04 l-2.72 2.04 l-0.04 0 z M180.42000000000002 39.44 l2.76 -2.08 l0.04 0 l0.24 0.24 l-2.84 2.12 c-0.08 -0.04 -0.2 -0.16 -0.2 -0.28 z M166.58 39.76 l2.8 -2.12 c0.08 0 0.16 0.08 0.2 0.08 c0.12 0.04 0.2 0.04 0.32 0.04 l-2.96 2.2 c-0.16 0 -0.28 -0.08 -0.36 -0.2 z M168.42000000000002 40 l-0.68 0 l3 -2.24 l0.64 0 z M169.26 40 l2.96 -2.24 l0.64 0 l-2.96 2.24 l-0.64 0 z M170.74 40 l2.96 -2.24 l0.64 0 l-2.96 2.24 l-0.64 0 z M181.1 40 l3 -2.24 l0.64 0 l-2.96 2.24 l-0.68 0 z M182.62 40 l2.96 -2.24 l0.64 0 l-2.96 2.24 l-0.64 0 z M184.1 40 l2.96 -2.24 l0.68 0 l-3 2.24 l-0.64 0 z M186.26 40 l-0.68 0 l2.76 -2.08 l0.04 0 l0 0.48 z M172.22 40 l2.64 -2 l0 0.48 l-2 1.52 l-0.64 0 z M187.74 40 l-0.64 0 l1.28 -0.96 c0 0.16 0 0.44 -0.12 0.56 z M174.26 40 l-0.56 0 l1.16 -0.88 c0 0.4 -0.24 0.88 -0.6 0.88 z M212.08800000000002 10.120000000000001 l2.24 -0.12 l1.76 0 l0.96 0.04 l1.52 0.16 c4.08 0.4 4.96 4.16 4.96 7.6 c0 0.44 0.04 1.52 -0.64 1.52 l-4.04 0 c-0.6 0 -0.68 -0.72 -0.68 -1.2 l-0.04 -1.52 c-0.04 -0.88 -1.28 -0.92 -1.88 -0.92 l-2 0 c-0.48 0 -0.96 0.08 -1.44 0.2 c-1.04 0.16 -1.2 0.48 -1.24 1.48 l1.2 -0.92 c0.16 -0.08 0.52 -0.08 0.68 -0.08 l-1.92 1.44 l0 0.64 l2.76 -2.08 l0.64 0 l-2.96 2.24 l-0.44 0 c0 1.4 0.56 1.6 1.84 1.72 l1.28 0.12 l0.12 0 l0 -0.04 l2.72 -2.04 c0.04 0.12 0 0.28 0 0.32 l0 0.16 l-2.12 1.6 l-0.04 0.04 l0.72 0.08 l1.52 -1.16 c0.04 0.04 0.08 0.16 0.08 0.2 s0.08 0.12 0.08 0.16 l-1.08 0.84 l0.08 0 s0.44 0.04 0.68 0.04 l0.88 -0.64 l0.64 0 l-0.96 0.72 l0.64 0.08 l0.08 0 l1.08 -0.8 l0.4 0 l0 0.16 l-1 0.76 l0.6 0.12 c0.16 0 0.24 -0.2 0.4 -0.24 l0 0.36 l0.04 0 c3.56 1.16 3.72 4.2 3.72 7.4 c0 8.32 -3.4 8.52 -10.48 8.52 l-2.12 -0.16 c-3.4 -0.24 -5.12 -3.24 -5.2 -6.4 l-0.04 -1.88 l0 -0.2 c0 -0.56 0.04 -1.08 0.6 -1.28 l0.52 0 l1.6 -1.16 c0.12 0 0.28 0.08 0.4 0.16 l-1.36 1 l0.84 0 l1.12 -0.8 l0.48 0.12 l-0.96 0.68 l0.84 0 l0.8 -0.6 l0.52 0.08 l-0.68 0.52 c0.2 0.04 0.32 0.12 0.48 0.28 l0.92 -0.68 l0 -0.04 l0.56 0.08 l-1.32 1 c-0.04 0.08 -0.04 0.12 -0.04 0.12 c0 0.08 0.04 0.4 0.04 0.48 l2.08 -1.52 l0.04 -0.04 c0.16 0 0.36 0.04 0.52 0.04 l-2.64 2 l0 0.24 c0 1.48 0 2.04 1.72 2.2 c0.64 0.08 1.24 0.08 1.88 0.08 l0.2 0 l0 -0.36 l2.68 -2 c0.04 0.08 0.04 0.2 0.04 0.32 l0 0.12 l-2.56 1.92 l0.28 0 l0.28 0 l0.28 0 l1.68 -1.24 l0 0.08 c0 0.08 0 0.32 -0.04 0.36 l-0.88 0.72 c0.24 0 0.44 -0.12 0.64 -0.16 c1 -0.36 0.92 -1.4 0.96 -2.28 c0 -0.48 -0.04 -0.92 -0.08 -1.4 c-0.16 -0.96 -0.96 -1.16 -1.8 -1.2 l-2.08 -0.08 l-2.16 -0.16 l-1.64 -0.28 c-3.04 -0.44 -4.48 -3.4 -4.6 -6.2 l-0.04 -1.56 c0 -4.12 1.2 -7.6 5.88 -7.88 z M206.328 14.04 l-2.52 1.88 c0 -0.12 0.44 -0.72 0.6 -0.92 l1.84 -1.4 c0.04 -0.04 0.36 -0.16 0.4 -0.16 z M203.368 16.88 l2.64 -1.96 l0 0.04 s-0.12 0.36 -0.16 0.56 l-2.64 1.96 l0 -0.12 c0.04 -0.08 0.12 -0.4 0.16 -0.48 z M203.048 18.2 l2.68 -2 l-0.08 0.56 l-2.68 2 l0.08 -0.52 l0 -0.04 z M212.80800000000002 18.56 l2.92 -2.16 l0 -0.04 c0.24 0 0.36 0 0.6 0.08 l-2.92 2.16 l-0.16 0 s-0.36 0 -0.44 -0.04 z M214.08800000000002 18.72 l2.84 -2.12 c0.12 0 0.28 0.12 0.36 0.2 l-2.76 2.08 c-0.2 -0.08 -0.32 -0.12 -0.44 -0.16 z M214.728 19.32 l2.76 -2.04 l0 0.4 l0 0.08 l-2.72 2 c0 -0.12 -0.04 -0.28 -0.04 -0.44 z M202.888 19.84 l0 -0.4 l2.68 -2.04 l0 0.12 c0 0.12 0.08 0.32 -0.04 0.4 l-2.64 2 l0 -0.08 z M202.848 20.56 l2.68 -2 l0.04 0 l0 0.44 l-2.68 2 l-0.04 0.04 l0 -0.48 z M202.888 21.64 l2.68 -2 c0.04 0.12 0.04 0.24 0.04 0.36 l0 0.08 l-2.68 2 c-0.04 -0.04 -0.08 -0.32 -0.08 -0.4 c0 -0.04 0 -0.04 0.04 -0.04 z M202.96800000000002 22.68 l2.68 -2 c0.04 0.16 0.08 0.44 0.08 0.44 l-2.76 2.04 c0 -0.08 -0.04 -0.36 -0.04 -0.44 z M203.08800000000002 23.68 l2.72 -2 l0.04 0.32 l0.04 0.04 s-0.04 0 -0.04 0.04 l-2.72 2 c0 -0.08 -0.04 -0.28 -0.04 -0.4 z M203.24800000000002 24.6 l0.04 0 l2.72 -2.04 l0.12 0.4 l-2.76 2.04 c0 -0.04 -0.04 -0.12 -0.04 -0.16 c-0.04 -0.04 -0.08 -0.24 -0.08 -0.24 z M203.568 25.48 l2.72 -2.04 l0.04 0 l0.16 0.32 l-2.76 2.08 c-0.04 -0.08 -0.12 -0.2 -0.16 -0.36 z M203.96800000000002 26.28 l2.76 -2.04 l0.04 -0.04 l0 0.04 l0.2 0.28 l-2.8 2.08 s-0.12 -0.2 -0.2 -0.32 z M204.488 27 l2.8 -2.08 l0.28 0.28 l-2.84 2.08 s-0.12 -0.16 -0.24 -0.28 z M205.168 27.6 l2.8 -2.08 l0.36 0.2 l-2.8 2.12 c-0.12 -0.04 -0.32 -0.16 -0.36 -0.24 z M212.008 29.119999999999997 l2.88 -2.2 l0.04 0 l0.08 0 l0.24 0 l0.28 0 l-2.92 2.2 c-0.04 0.04 0 0 -0.04 0 l-0.56 0 z M213.888 29.240000000000002 l-0.52 -0.08 l2.92 -2.16 c0.12 0 0.36 0.04 0.48 0.08 z M214.488 29.4 l2.84 -2.12 c0.16 0 0.32 0.24 0.32 0.24 l-2.76 2.08 c-0.12 -0.08 -0.36 -0.16 -0.4 -0.2 z M215.08800000000002 30.04 l2.72 -2.04 l0.04 0 c0.08 0.08 0.04 0.28 0.04 0.4 l0 0.04 l-2.72 2.04 c0 -0.16 -0.04 -0.28 -0.08 -0.44 z M202.848 30.439999999999998 l0.52 -0.4 l0.64 0 l-1.28 0.96 c0 -0.12 0.04 -0.52 0.12 -0.56 z M202.728 31.64 l2.12 -1.6 l0.6 0 l0 0.04 l-2.72 2.04 l0 -0.48 z M202.728 32.72 l2.72 -2.04 c0 0.08 0.04 0.32 0.04 0.48 l-2.72 2.04 c-0.04 -0.16 -0.04 -0.28 -0.04 -0.48 z M202.80800000000002 33.76 l2.72 -2 s0.04 0.28 0.04 0.44 l-2.72 2 s-0.04 -0.24 -0.04 -0.44 z M202.928 34.76 l2.72 -2.04 c0.04 0.16 0.12 0.4 0.12 0.44 l-2.76 2.04 l-0.08 -0.4 l0 -0.04 z M203.24800000000002 36.12 l-0.12 -0.4 l2.72 -2.04 l0.04 0 l0.12 0.36 z M203.608 36.92 l-0.16 -0.32 l2.76 -2.08 c0.04 0 0.04 0 0.04 0.04 l0.16 0.28 z M203.888 37.32 l2.76 -2.04 l0 0 l0.2 0.28 l0 0.04 l-2.76 2.08 l-0.2 -0.32 l0 -0.04 z M204.368 38.08 l2.8 -2.08 l0.04 -0.04 l0.28 0.28 l-2.84 2.12 l-0.16 -0.16 c0 -0.04 -0.08 -0.12 -0.12 -0.12 z M205.048 38.68 l2.8 -2.08 l0.04 -0.04 l0.32 0.24 l-2.84 2.12 s-0.12 -0.12 -0.2 -0.16 c0 0 -0.12 -0.04 -0.12 -0.08 z M205.888 39.16 l2.8 -2.12 l0.04 0 l0.4 0.16 l-2.84 2.12 l-0.04 0.04 c-0.08 0 -0.32 -0.12 -0.36 -0.2 z M215.368 39.8 l-0.04 0 l3 -2.24 c0.04 -0.04 0.44 -0.12 0.52 -0.12 c0.04 -0.04 0.36 -0.12 0.44 -0.12 l-3.12 2.32 c-0.04 0.04 -0.72 0.16 -0.8 0.16 z M206.848 39.56 l2.88 -2.16 l0.48 0.12 l-2.92 2.16 c-0.12 0 -0.32 -0.04 -0.44 -0.12 z M208.008 39.8 l-0.04 0 l2.88 -2.16 c0.04 -0.04 0.04 0 0.08 0 c0.16 0 0.36 0 0.52 0.04 l-2.92 2.16 c-0.2 0 -0.48 -0.04 -0.52 -0.04 z M213.648 39.96 l2.96 -2.2 c0.08 -0.08 0.6 -0.08 0.72 -0.08 l-2.96 2.2 c0 0.04 -0.4 0.04 -0.72 0.08 z M209.328 39.92 l-0.04 0 l2.92 -2.2 l0.08 0 c0.16 0 0.36 0 0.52 0.04 l-2.92 2.2 l-0.08 0 c-0.08 0 -0.44 -0.04 -0.48 -0.04 z M212.12800000000001 40 l2.92 -2.2 l0.04 0 c0 -0.04 0.36 -0.04 0.64 -0.04 l-2.96 2.24 l-0.64 0 z M210.68800000000002 39.96 l2.92 -2.16 l0.64 0 l-2.96 2.2 l-0.16 0 c-0.16 0 -0.28 0 -0.44 -0.04 z" fill="#111111"></path></g></svg>